<?xml version="1.0" encoding="utf-8" standalone="no"?>
<!DOCTYPE svg PUBLIC "-//W3C//DTD SVG 1.1//EN"
  "http://www.w3.org/Graphics/SVG/1.1/DTD/svg11.dtd">
<!-- Created with matplotlib (http://matplotlib.org/) -->
<svg height="373.055pt" version="1.1" viewBox="0 0 424.205 373.055" width="424.205pt" xmlns="http://www.w3.org/2000/svg" xmlns:xlink="http://www.w3.org/1999/xlink">
 <defs>
  <style type="text/css">
*{stroke-linecap:butt;stroke-linejoin:round;}
  </style>
 </defs>
 <g id="figure_1">
  <g id="patch_1">
   <path d="M 0 373.055 
L 424.205 373.055 
L 424.205 0 
L 0 0 
z
" style="fill:#ffffff;"/>
  </g>
  <g id="axes_1">
   <g id="patch_2">
    <path d="M 137.91875 334.55 
L 406.34375 334.55 
L 406.34375 30 
L 137.91875 30 
z
" style="fill:#ffffff;"/>
   </g>
   <g id="matplotlib.axis_1">
    <g id="xtick_1">
     <g id="line2d_1">
      <path clip-path="url(#pbcdd53c035)" d="M 137.91875 334.55 
L 137.91875 30 
" style="fill:none;stroke:#cccccc;stroke-linecap:round;stroke-width:0.8;"/>
     </g>
     <g id="line2d_2"/>
     <g id="text_1">
      <!-- 0.70 -->
      <defs>
       <path d="M 25 -2.203125 
Q 12.75 -2.203125 8.328125 7.875 
Q 3.90625 17.96875 3.90625 31.890625 
Q 3.90625 40.578125 5.484375 48.234375 
Q 7.078125 55.90625 11.78125 61.25 
Q 16.5 66.609375 25 66.609375 
Q 31.59375 66.609375 35.78125 63.375 
Q 39.984375 60.15625 42.1875 55.046875 
Q 44.390625 49.953125 45.1875 44.109375 
Q 46 38.28125 46 31.890625 
Q 46 23.296875 44.40625 15.796875 
Q 42.828125 8.296875 38.1875 3.046875 
Q 33.546875 -2.203125 25 -2.203125 
z
M 25 0.390625 
Q 30.5625 0.390625 33.296875 6.09375 
Q 36.03125 11.8125 36.671875 18.75 
Q 37.3125 25.6875 37.3125 33.5 
Q 37.3125 41.015625 36.671875 47.359375 
Q 36.03125 53.71875 33.3125 58.859375 
Q 30.609375 64.015625 25 64.015625 
Q 19.34375 64.015625 16.609375 58.828125 
Q 13.875 53.65625 13.234375 47.328125 
Q 12.59375 41.015625 12.59375 33.5 
Q 12.59375 27.9375 12.859375 23 
Q 13.140625 18.0625 14.3125 12.8125 
Q 15.484375 7.5625 18.09375 3.96875 
Q 20.703125 0.390625 25 0.390625 
z
" id="Cmr10-30"/>
       <path d="M 8.40625 5.515625 
Q 8.40625 7.765625 10.0625 9.375 
Q 11.71875 10.984375 13.921875 10.984375 
Q 15.28125 10.984375 16.59375 10.25 
Q 17.921875 9.515625 18.65625 8.203125 
Q 19.390625 6.890625 19.390625 5.515625 
Q 19.390625 3.328125 17.765625 1.65625 
Q 16.15625 0 13.921875 0 
Q 11.71875 0 10.0625 1.65625 
Q 8.40625 3.328125 8.40625 5.515625 
z
" id="Cmr10-2e"/>
       <path d="M 17.390625 2.59375 
Q 17.390625 8.15625 18.359375 13.46875 
Q 19.34375 18.796875 21.21875 24 
Q 23.09375 29.203125 25.75 34.203125 
Q 28.421875 39.203125 31.59375 43.609375 
L 40.71875 56.296875 
L 29.296875 56.296875 
Q 11.53125 56.296875 10.984375 55.8125 
Q 9.671875 54.203125 8.5 46.578125 
L 5.609375 46.578125 
L 8.890625 67.578125 
L 11.8125 67.578125 
L 11.8125 67.28125 
Q 11.8125 65.484375 17.921875 64.9375 
Q 24.03125 64.40625 29.890625 64.40625 
L 48.484375 64.40625 
L 48.484375 61.8125 
Q 48.484375 61.71875 48.453125 61.671875 
Q 48.4375 61.625 48.390625 61.53125 
L 34.625 42.1875 
Q 29.546875 34.671875 28.265625 25.484375 
Q 27 16.3125 27 2.59375 
Q 27 0.640625 25.578125 -0.78125 
Q 24.171875 -2.203125 22.21875 -2.203125 
Q 20.21875 -2.203125 18.796875 -0.78125 
Q 17.390625 0.640625 17.390625 2.59375 
z
" id="Cmr10-37"/>
      </defs>
      <g style="fill:#262626;" transform="translate(127.2575 348.476875)scale(0.12 -0.12)">
       <use xlink:href="#Cmr10-30"/>
       <use x="50" xlink:href="#Cmr10-2e"/>
       <use x="77.685547" xlink:href="#Cmr10-37"/>
       <use x="127.685547" xlink:href="#Cmr10-30"/>
      </g>
     </g>
    </g>
    <g id="xtick_2">
     <g id="line2d_3">
      <path clip-path="url(#pbcdd53c035)" d="M 182.65625 334.55 
L 182.65625 30 
" style="fill:none;stroke:#cccccc;stroke-linecap:round;stroke-width:0.8;"/>
     </g>
     <g id="line2d_4"/>
     <g id="text_2">
      <!-- 0.75 -->
      <defs>
       <path d="M 8.6875 11.375 
Q 9.71875 8.453125 11.84375 6.046875 
Q 13.96875 3.65625 16.875 2.3125 
Q 19.78125 0.984375 22.90625 0.984375 
Q 30.125 0.984375 32.859375 6.59375 
Q 35.59375 12.203125 35.59375 20.21875 
Q 35.59375 23.6875 35.46875 26.046875 
Q 35.359375 28.421875 34.8125 30.609375 
Q 33.890625 34.125 31.5625 36.765625 
Q 29.25 39.40625 25.875 39.40625 
Q 22.515625 39.40625 20.09375 38.375 
Q 17.671875 37.359375 16.15625 35.984375 
Q 14.65625 34.625 13.484375 33.109375 
Q 12.3125 31.59375 12.015625 31.5 
L 10.890625 31.5 
Q 10.640625 31.5 10.265625 31.8125 
Q 9.90625 32.125 9.90625 32.421875 
L 9.90625 65.828125 
Q 9.90625 66.0625 10.21875 66.328125 
Q 10.546875 66.609375 10.890625 66.609375 
L 11.1875 66.609375 
Q 17.921875 63.375 25.484375 63.375 
Q 32.90625 63.375 39.796875 66.609375 
L 40.09375 66.609375 
Q 40.4375 66.609375 40.71875 66.359375 
Q 41.015625 66.109375 41.015625 65.828125 
L 41.015625 64.890625 
Q 41.015625 64.40625 40.828125 64.40625 
Q 37.40625 59.859375 32.25 57.3125 
Q 27.09375 54.78125 21.578125 54.78125 
Q 17.578125 54.78125 13.375 55.90625 
L 13.375 37.015625 
Q 16.703125 39.703125 19.3125 40.84375 
Q 21.921875 42 25.984375 42 
Q 31.5 42 35.859375 38.8125 
Q 40.234375 35.640625 42.578125 30.53125 
Q 44.921875 25.4375 44.921875 20.125 
Q 44.921875 14.109375 41.96875 8.984375 
Q 39.015625 3.859375 33.9375 0.828125 
Q 28.859375 -2.203125 22.90625 -2.203125 
Q 17.96875 -2.203125 13.84375 0.328125 
Q 9.71875 2.875 7.34375 7.171875 
Q 4.984375 11.46875 4.984375 16.3125 
Q 4.984375 18.5625 6.4375 19.96875 
Q 7.90625 21.390625 10.109375 21.390625 
Q 12.3125 21.390625 13.796875 19.9375 
Q 15.28125 18.5 15.28125 16.3125 
Q 15.28125 14.15625 13.796875 12.671875 
Q 12.3125 11.1875 10.109375 11.1875 
Q 9.765625 11.1875 9.328125 11.25 
Q 8.890625 11.328125 8.6875 11.375 
z
" id="Cmr10-35"/>
      </defs>
      <g style="fill:#262626;" transform="translate(171.995 348.476875)scale(0.12 -0.12)">
       <use xlink:href="#Cmr10-30"/>
       <use x="50" xlink:href="#Cmr10-2e"/>
       <use x="77.685547" xlink:href="#Cmr10-37"/>
       <use x="127.685547" xlink:href="#Cmr10-35"/>
      </g>
     </g>
    </g>
    <g id="xtick_3">
     <g id="line2d_5">
      <path clip-path="url(#pbcdd53c035)" d="M 227.39375 334.55 
L 227.39375 30 
" style="fill:none;stroke:#cccccc;stroke-linecap:round;stroke-width:0.8;"/>
     </g>
     <g id="line2d_6"/>
     <g id="text_3">
      <!-- 0.80 -->
      <defs>
       <path d="M 4.203125 15.1875 
Q 4.203125 21.1875 8.15625 25.796875 
Q 12.109375 30.421875 18.3125 33.5 
L 14.59375 35.890625 
Q 11.1875 38.140625 9.03125 41.875 
Q 6.890625 45.609375 6.890625 49.703125 
Q 6.890625 54.5 9.40625 58.34375 
Q 11.921875 62.203125 16.09375 64.40625 
Q 20.265625 66.609375 25 66.609375 
Q 29.4375 66.609375 33.5625 64.796875 
Q 37.703125 62.984375 40.359375 59.609375 
Q 43.015625 56.25 43.015625 51.609375 
Q 43.015625 48.25 41.421875 45.359375 
Q 39.84375 42.484375 37.078125 40.1875 
Q 34.328125 37.890625 31.203125 36.28125 
L 36.921875 32.625 
Q 40.875 30.03125 43.28125 25.828125 
Q 45.703125 21.625 45.703125 17 
Q 45.703125 11.578125 42.796875 7.125 
Q 39.890625 2.6875 35.109375 0.234375 
Q 30.328125 -2.203125 25 -2.203125 
Q 19.828125 -2.203125 15.015625 -0.09375 
Q 10.203125 2 7.203125 5.984375 
Q 4.203125 9.96875 4.203125 15.1875 
z
M 9.625 15.1875 
Q 9.625 11.234375 11.796875 7.953125 
Q 13.96875 4.6875 17.53125 2.828125 
Q 21.09375 0.984375 25 0.984375 
Q 30.8125 0.984375 35.546875 4.375 
Q 40.28125 7.765625 40.28125 13.375 
Q 40.28125 15.28125 39.515625 17.15625 
Q 38.765625 19.046875 37.421875 20.578125 
Q 36.078125 22.125 34.421875 23.09375 
L 21 31.78125 
Q 17.875 30.125 15.25 27.578125 
Q 12.640625 25.046875 11.125 21.875 
Q 9.625 18.703125 9.625 15.1875 
z
M 16.5 45.703125 
L 28.609375 37.890625 
Q 32.8125 40.328125 35.5 43.796875 
Q 38.1875 47.265625 38.1875 51.609375 
Q 38.1875 54.984375 36.296875 57.78125 
Q 34.421875 60.59375 31.390625 62.15625 
Q 28.375 63.71875 24.90625 63.71875 
Q 21.875 63.71875 18.796875 62.546875 
Q 15.71875 61.375 13.71875 59.046875 
Q 11.71875 56.734375 11.71875 53.609375 
Q 11.71875 48.921875 16.5 45.703125 
z
" id="Cmr10-38"/>
      </defs>
      <g style="fill:#262626;" transform="translate(216.7325 348.476875)scale(0.12 -0.12)">
       <use xlink:href="#Cmr10-30"/>
       <use x="50" xlink:href="#Cmr10-2e"/>
       <use x="77.685547" xlink:href="#Cmr10-38"/>
       <use x="127.685547" xlink:href="#Cmr10-30"/>
      </g>
     </g>
    </g>
    <g id="xtick_4">
     <g id="line2d_7">
      <path clip-path="url(#pbcdd53c035)" d="M 272.13125 334.55 
L 272.13125 30 
" style="fill:none;stroke:#cccccc;stroke-linecap:round;stroke-width:0.8;"/>
     </g>
     <g id="line2d_8"/>
     <g id="text_4">
      <!-- 0.85 -->
      <g style="fill:#262626;" transform="translate(261.47 348.476875)scale(0.12 -0.12)">
       <use xlink:href="#Cmr10-30"/>
       <use x="50" xlink:href="#Cmr10-2e"/>
       <use x="77.685547" xlink:href="#Cmr10-38"/>
       <use x="127.685547" xlink:href="#Cmr10-35"/>
      </g>
     </g>
    </g>
    <g id="xtick_5">
     <g id="line2d_9">
      <path clip-path="url(#pbcdd53c035)" d="M 316.86875 334.55 
L 316.86875 30 
" style="fill:none;stroke:#cccccc;stroke-linecap:round;stroke-width:0.8;"/>
     </g>
     <g id="line2d_10"/>
     <g id="text_5">
      <!-- 0.90 -->
      <defs>
       <path d="M 11.28125 4.203125 
Q 14.015625 0.984375 20.796875 0.984375 
Q 24.609375 0.984375 27.90625 3.5625 
Q 31.203125 6.15625 33.015625 9.90625 
Q 35.109375 14.15625 35.6875 18.96875 
Q 36.28125 23.78125 36.28125 30.90625 
Q 34.578125 26.859375 31.375 24.265625 
Q 28.171875 21.6875 24.03125 21.6875 
Q 18.21875 21.6875 13.640625 24.828125 
Q 9.078125 27.984375 6.640625 33.125 
Q 4.203125 38.28125 4.203125 44.09375 
Q 4.203125 50.09375 6.9375 55.296875 
Q 9.671875 60.5 14.5 63.546875 
Q 19.34375 66.609375 25.484375 66.609375 
Q 31.546875 66.609375 35.625 63.3125 
Q 39.703125 60.015625 41.84375 54.8125 
Q 44 49.609375 44.84375 43.796875 
Q 45.703125 37.984375 45.703125 32.328125 
Q 45.703125 24.609375 42.875 16.578125 
Q 40.046875 8.546875 34.40625 3.171875 
Q 28.765625 -2.203125 20.796875 -2.203125 
Q 14.890625 -2.203125 10.78125 0.578125 
Q 6.6875 3.375 6.6875 8.984375 
Q 6.6875 11.03125 8.078125 12.421875 
Q 9.46875 13.8125 11.53125 13.8125 
Q 13.53125 13.8125 14.921875 12.421875 
Q 16.3125 11.03125 16.3125 8.984375 
Q 16.3125 7.03125 14.890625 5.609375 
Q 13.484375 4.203125 11.53125 4.203125 
z
M 24.421875 24.3125 
Q 28.515625 24.3125 31.125 27.0625 
Q 33.734375 29.828125 34.90625 33.921875 
Q 36.078125 38.03125 36.078125 42.09375 
L 36.078125 44 
L 36.078125 44.390625 
Q 36.078125 51.90625 33.875 57.8125 
Q 31.6875 63.71875 25.484375 63.71875 
Q 21.53125 63.71875 19.0625 61.984375 
Q 16.609375 60.25 15.4375 57.375 
Q 14.265625 54.5 13.9375 51.21875 
Q 13.625 47.953125 13.625 44.09375 
Q 13.625 38.421875 14.15625 34.421875 
Q 14.703125 30.421875 17.09375 27.359375 
Q 19.484375 24.3125 24.421875 24.3125 
z
" id="Cmr10-39"/>
      </defs>
      <g style="fill:#262626;" transform="translate(306.2075 348.476875)scale(0.12 -0.12)">
       <use xlink:href="#Cmr10-30"/>
       <use x="50" xlink:href="#Cmr10-2e"/>
       <use x="77.685547" xlink:href="#Cmr10-39"/>
       <use x="127.685547" xlink:href="#Cmr10-30"/>
      </g>
     </g>
    </g>
    <g id="xtick_6">
     <g id="line2d_11">
      <path clip-path="url(#pbcdd53c035)" d="M 361.60625 334.55 
L 361.60625 30 
" style="fill:none;stroke:#cccccc;stroke-linecap:round;stroke-width:0.8;"/>
     </g>
     <g id="line2d_12"/>
     <g id="text_6">
      <!-- 0.95 -->
      <g style="fill:#262626;" transform="translate(350.945 348.476875)scale(0.12 -0.12)">
       <use xlink:href="#Cmr10-30"/>
       <use x="50" xlink:href="#Cmr10-2e"/>
       <use x="77.685547" xlink:href="#Cmr10-39"/>
       <use x="127.685547" xlink:href="#Cmr10-35"/>
      </g>
     </g>
    </g>
    <g id="xtick_7">
     <g id="line2d_13">
      <path clip-path="url(#pbcdd53c035)" d="M 406.34375 334.55 
L 406.34375 30 
" style="fill:none;stroke:#cccccc;stroke-linecap:round;stroke-width:0.8;"/>
     </g>
     <g id="line2d_14"/>
     <g id="text_7">
      <!-- 1.00 -->
      <defs>
       <path d="M 9.28125 0 
L 9.28125 3.515625 
Q 21.78125 3.515625 21.78125 6.6875 
L 21.78125 59.1875 
Q 16.609375 56.6875 8.6875 56.6875 
L 8.6875 60.203125 
Q 20.953125 60.203125 27.203125 66.609375 
L 28.609375 66.609375 
Q 28.953125 66.609375 29.265625 66.328125 
Q 29.59375 66.0625 29.59375 65.71875 
L 29.59375 6.6875 
Q 29.59375 3.515625 42.09375 3.515625 
L 42.09375 0 
z
" id="Cmr10-31"/>
      </defs>
      <g style="fill:#262626;" transform="translate(395.6825 348.476875)scale(0.12 -0.12)">
       <use xlink:href="#Cmr10-31"/>
       <use x="50" xlink:href="#Cmr10-2e"/>
       <use x="77.685547" xlink:href="#Cmr10-30"/>
       <use x="127.685547" xlink:href="#Cmr10-30"/>
      </g>
     </g>
    </g>
    <g id="text_8">
     <!-- Accuracy -->
     <defs>
      <path d="M 3.21875 0 
L 3.21875 3.515625 
Q 12.15625 3.515625 14.203125 9.421875 
L 35.203125 70.515625 
Q 35.5 71.578125 36.8125 71.578125 
L 38.09375 71.578125 
Q 39.40625 71.578125 39.703125 70.515625 
L 61.625 6.6875 
Q 62.546875 4.59375 65.15625 4.046875 
Q 67.78125 3.515625 71.6875 3.515625 
L 71.6875 0 
L 43.796875 0 
L 43.796875 3.515625 
Q 52.09375 3.515625 52.09375 6.203125 
L 52.09375 6.6875 
L 46.6875 22.3125 
L 22.40625 22.3125 
L 17.921875 9.421875 
Q 17.828125 9.078125 17.828125 8.40625 
Q 17.828125 5.90625 20.1875 4.703125 
Q 22.5625 3.515625 25.296875 3.515625 
L 25.296875 0 
z
M 23.578125 25.78125 
L 45.515625 25.78125 
L 34.515625 57.71875 
z
" id="Cmr10-41"/>
      <path d="M 24.90625 -1.125 
Q 18.84375 -1.125 13.90625 2.015625 
Q 8.984375 5.171875 6.15625 10.421875 
Q 3.328125 15.671875 3.328125 21.578125 
Q 3.328125 27.484375 6.125 32.90625 
Q 8.9375 38.328125 13.890625 41.578125 
Q 18.84375 44.828125 24.90625 44.828125 
Q 30.765625 44.828125 35.5625 42.53125 
Q 40.375 40.234375 40.375 35.015625 
Q 40.375 33.0625 38.984375 31.609375 
Q 37.59375 30.171875 35.59375 30.171875 
Q 33.59375 30.171875 32.203125 31.609375 
Q 30.8125 33.0625 30.8125 35.015625 
Q 30.8125 36.765625 31.9375 38.0625 
Q 33.0625 39.359375 34.71875 39.703125 
Q 31.25 41.890625 25 41.890625 
Q 20.21875 41.890625 17.28125 38.71875 
Q 14.359375 35.546875 13.1875 30.859375 
Q 12.015625 26.171875 12.015625 21.578125 
Q 12.015625 16.75 13.453125 12.234375 
Q 14.890625 7.71875 18.09375 4.765625 
Q 21.296875 1.8125 26.125 1.8125 
Q 30.859375 1.8125 34.171875 4.71875 
Q 37.5 7.625 38.71875 12.3125 
Q 38.71875 12.890625 39.5 12.890625 
L 40.71875 12.890625 
Q 41.015625 12.890625 41.25 12.625 
Q 41.5 12.359375 41.5 12.015625 
L 41.5 11.71875 
Q 39.984375 5.8125 35.484375 2.34375 
Q 31 -1.125 24.90625 -1.125 
z
" id="Cmr10-63"/>
      <path d="M 10.796875 11.921875 
L 10.796875 33.984375 
Q 10.796875 36.671875 9.984375 37.859375 
Q 9.1875 39.0625 7.671875 39.328125 
Q 6.15625 39.59375 2.984375 39.59375 
L 2.984375 43.109375 
L 18.109375 44.1875 
L 18.109375 11.921875 
Q 18.109375 8.015625 18.671875 5.828125 
Q 19.234375 3.65625 21.0625 2.578125 
Q 22.90625 1.515625 26.90625 1.515625 
Q 32.28125 1.515625 35.453125 6 
Q 38.625 10.5 38.625 16.21875 
L 38.625 33.984375 
Q 38.625 36.671875 37.796875 37.859375 
Q 36.96875 39.0625 35.46875 39.328125 
Q 33.984375 39.59375 30.8125 39.59375 
L 30.8125 43.109375 
L 45.90625 44.1875 
L 45.90625 9.078125 
Q 45.90625 6.453125 46.703125 5.25 
Q 47.515625 4.046875 49.015625 3.78125 
Q 50.53125 3.515625 53.71875 3.515625 
L 53.71875 0 
L 38.921875 -1.125 
L 38.921875 7.328125 
Q 37.0625 3.5625 33.734375 1.21875 
Q 30.421875 -1.125 26.421875 -1.125 
Q 19.234375 -1.125 15.015625 1.921875 
Q 10.796875 4.984375 10.796875 11.921875 
z
" id="Cmr10-75"/>
      <path d="M 2.59375 0 
L 2.59375 3.515625 
Q 6 3.515625 8.203125 4.046875 
Q 10.40625 4.59375 10.40625 6.6875 
L 10.40625 33.984375 
Q 10.40625 36.671875 9.59375 37.859375 
Q 8.796875 39.0625 7.28125 39.328125 
Q 5.765625 39.59375 2.59375 39.59375 
L 2.59375 43.109375 
L 16.890625 44.1875 
L 16.890625 34.421875 
Q 18.5 38.765625 21.484375 41.46875 
Q 24.46875 44.1875 28.71875 44.1875 
Q 31.6875 44.1875 34.03125 42.421875 
Q 36.375 40.671875 36.375 37.796875 
Q 36.375 35.984375 35.078125 34.640625 
Q 33.796875 33.296875 31.890625 33.296875 
Q 30.03125 33.296875 28.703125 34.609375 
Q 27.390625 35.9375 27.390625 37.796875 
Q 27.390625 40.484375 29.296875 41.609375 
L 28.71875 41.609375 
Q 24.65625 41.609375 22.09375 38.671875 
Q 19.53125 35.75 18.453125 31.390625 
Q 17.390625 27.046875 17.390625 23.09375 
L 17.390625 6.6875 
Q 17.390625 3.515625 27.09375 3.515625 
L 27.09375 0 
z
" id="Cmr10-72"/>
      <path d="M 4 9.8125 
Q 4 15.765625 8.6875 19.5 
Q 13.375 23.25 19.9375 24.78125 
Q 26.515625 26.3125 32.421875 26.3125 
L 32.421875 30.421875 
Q 32.421875 33.296875 31.15625 36 
Q 29.890625 38.71875 27.484375 40.453125 
Q 25.09375 42.1875 22.21875 42.1875 
Q 15.578125 42.1875 12.109375 39.203125 
Q 14.015625 39.203125 15.25 37.765625 
Q 16.5 36.328125 16.5 34.421875 
Q 16.5 32.421875 15.078125 31 
Q 13.671875 29.59375 11.71875 29.59375 
Q 9.71875 29.59375 8.296875 31 
Q 6.890625 32.421875 6.890625 34.421875 
Q 6.890625 39.703125 11.671875 42.265625 
Q 16.453125 44.828125 22.21875 44.828125 
Q 26.265625 44.828125 30.359375 43.09375 
Q 34.46875 41.359375 37.078125 38.125 
Q 39.703125 34.90625 39.703125 30.609375 
L 39.703125 8.109375 
Q 39.703125 6.15625 40.53125 4.515625 
Q 41.359375 2.875 43.109375 2.875 
Q 44.78125 2.875 45.578125 4.53125 
Q 46.390625 6.203125 46.390625 8.109375 
L 46.390625 14.5 
L 49.3125 14.5 
L 49.3125 8.109375 
Q 49.3125 5.859375 48.140625 3.828125 
Q 46.96875 1.8125 44.984375 0.609375 
Q 43.015625 -0.59375 40.71875 -0.59375 
Q 37.796875 -0.59375 35.671875 1.671875 
Q 33.546875 3.953125 33.296875 7.078125 
Q 31.453125 3.328125 27.828125 1.09375 
Q 24.21875 -1.125 20.125 -1.125 
Q 16.3125 -1.125 12.625 0 
Q 8.9375 1.125 6.46875 3.53125 
Q 4 5.953125 4 9.8125 
z
M 12.109375 9.8125 
Q 12.109375 6.296875 14.6875 3.90625 
Q 17.28125 1.515625 20.796875 1.515625 
Q 24.03125 1.515625 26.65625 3.125 
Q 29.296875 4.734375 30.859375 7.515625 
Q 32.421875 10.296875 32.421875 13.375 
L 32.421875 23.78125 
Q 27.875 23.78125 23.109375 22.28125 
Q 18.359375 20.796875 15.234375 17.625 
Q 12.109375 14.453125 12.109375 9.8125 
z
" id="Cmr10-61"/>
      <path d="M 6.890625 -16.40625 
Q 8.796875 -17.921875 11.078125 -17.921875 
Q 17.390625 -17.921875 21.390625 -8.40625 
L 24.8125 0 
L 9.8125 36.71875 
Q 8.890625 38.578125 6.984375 39.078125 
Q 5.078125 39.59375 1.90625 39.59375 
L 1.90625 43.109375 
L 22.90625 43.109375 
L 22.90625 39.59375 
Q 17.390625 39.59375 17.390625 37.203125 
Q 17.390625 36.8125 17.484375 36.625 
L 28.609375 9.28125 
L 38.625 33.890625 
Q 38.921875 34.671875 38.921875 35.59375 
Q 38.921875 36.8125 38.25 37.71875 
Q 37.59375 38.625 36.546875 39.109375 
Q 35.5 39.59375 34.1875 39.59375 
L 34.1875 43.109375 
L 50.78125 43.109375 
L 50.78125 39.59375 
Q 47.703125 39.59375 45.375 38.171875 
Q 43.0625 36.765625 41.796875 33.984375 
L 24.515625 -8.40625 
Q 23.140625 -11.625 21.3125 -14.328125 
Q 19.484375 -17.046875 16.84375 -18.78125 
Q 14.203125 -20.515625 11.078125 -20.515625 
Q 7.421875 -20.515625 4.65625 -18.09375 
Q 1.90625 -15.671875 1.90625 -12.109375 
Q 1.90625 -10.25 3.171875 -8.984375 
Q 4.4375 -7.71875 6.296875 -7.71875 
Q 7.5625 -7.71875 8.5625 -8.28125 
Q 9.578125 -8.84375 10.125 -9.8125 
Q 10.6875 -10.796875 10.6875 -12.109375 
Q 10.6875 -13.71875 9.609375 -14.984375 
Q 8.546875 -16.265625 6.890625 -16.40625 
z
" id="Cmr10-79"/>
     </defs>
     <g style="fill:#262626;" transform="translate(247.802188 363.393125)scale(0.12 -0.12)">
      <use xlink:href="#Cmr10-41"/>
      <use x="75" xlink:href="#Cmr10-63"/>
      <use x="119.384766" xlink:href="#Cmr10-63"/>
      <use x="163.769531" xlink:href="#Cmr10-75"/>
      <use x="219.287109" xlink:href="#Cmr10-72"/>
      <use x="258.398438" xlink:href="#Cmr10-61"/>
      <use x="308.398438" xlink:href="#Cmr10-63"/>
      <use x="352.783203" xlink:href="#Cmr10-79"/>
     </g>
    </g>
   </g>
   <g id="matplotlib.axis_2">
    <g id="ytick_1">
     <g id="line2d_15"/>
     <g id="text_9">
      <!-- Optical -->
      <defs>
       <path d="M 38.921875 -2.203125 
Q 29.390625 -2.203125 21.796875 2.84375 
Q 14.203125 7.90625 9.90625 16.28125 
Q 5.609375 24.65625 5.609375 33.890625 
Q 5.609375 40.71875 8.078125 47.40625 
Q 10.546875 54.109375 14.96875 59.28125 
Q 19.390625 64.453125 25.578125 67.484375 
Q 31.78125 70.515625 38.921875 70.515625 
Q 46 70.515625 52.21875 67.453125 
Q 58.453125 64.40625 62.890625 59.171875 
Q 67.328125 53.953125 69.71875 47.453125 
Q 72.125 40.96875 72.125 33.890625 
Q 72.125 24.65625 67.828125 16.28125 
Q 63.53125 7.90625 55.90625 2.84375 
Q 48.296875 -2.203125 38.921875 -2.203125 
z
M 22.3125 10.796875 
Q 25.25 6.203125 29.546875 3.484375 
Q 33.84375 0.78125 38.921875 0.78125 
Q 42.1875 0.78125 45.328125 2.09375 
Q 48.484375 3.421875 51.046875 5.71875 
Q 53.609375 8.015625 55.421875 10.796875 
Q 61.375 19.78125 61.375 35.5 
Q 61.375 49.90625 55.421875 58.296875 
Q 52.484375 62.5 48.109375 65.03125 
Q 43.75 67.578125 38.921875 67.578125 
Q 34.03125 67.578125 29.640625 65.03125 
Q 25.25 62.5 22.3125 58.296875 
Q 19.96875 55.03125 18.671875 51.34375 
Q 17.390625 47.65625 16.84375 43.703125 
Q 16.3125 39.75 16.3125 35.5 
Q 16.3125 30.953125 16.8125 26.625 
Q 17.328125 22.3125 18.71875 18.15625 
Q 20.125 14.015625 22.3125 10.796875 
z
" id="Cmr10-4f"/>
       <path d="M 2.59375 -19.390625 
L 2.59375 -15.921875 
Q 6 -15.921875 8.203125 -15.328125 
Q 10.40625 -14.75 10.40625 -12.703125 
L 10.40625 35.5 
Q 10.40625 38.234375 8.453125 38.90625 
Q 6.5 39.59375 2.59375 39.59375 
L 2.59375 43.109375 
L 17.390625 44.1875 
L 17.390625 37.984375 
Q 20.125 41.015625 23.75 42.59375 
Q 27.390625 44.1875 31.5 44.1875 
Q 37.40625 44.1875 42.140625 40.984375 
Q 46.875 37.796875 49.53125 32.59375 
Q 52.203125 27.390625 52.203125 21.578125 
Q 52.203125 15.53125 49.25 10.296875 
Q 46.296875 5.078125 41.1875 1.96875 
Q 36.078125 -1.125 29.984375 -1.125 
Q 22.703125 -1.125 17.671875 4.78125 
L 17.671875 -12.703125 
Q 17.671875 -14.75 19.890625 -15.328125 
Q 22.125 -15.921875 25.484375 -15.921875 
L 25.484375 -19.390625 
z
M 17.671875 9.71875 
Q 19.4375 6.15625 22.5625 3.828125 
Q 25.6875 1.515625 29.390625 1.515625 
Q 32.859375 1.515625 35.515625 3.359375 
Q 38.1875 5.21875 39.984375 8.34375 
Q 41.796875 11.46875 42.640625 14.90625 
Q 43.5 18.359375 43.5 21.578125 
Q 43.5 25.59375 42.0625 30.25 
Q 40.625 34.90625 37.671875 38.109375 
Q 34.71875 41.3125 30.515625 41.3125 
Q 26.46875 41.3125 23.0625 39.234375 
Q 19.671875 37.15625 17.671875 33.59375 
z
" id="Cmr10-70"/>
       <path d="M 10.203125 12.015625 
L 10.203125 39.59375 
L 1.90625 39.59375 
L 1.90625 42.1875 
Q 8.453125 42.1875 11.515625 48.28125 
Q 14.59375 54.390625 14.59375 61.53125 
L 17.484375 61.53125 
L 17.484375 43.109375 
L 31.59375 43.109375 
L 31.59375 39.59375 
L 17.484375 39.59375 
L 17.484375 12.203125 
Q 17.484375 8.0625 18.875 4.9375 
Q 20.265625 1.8125 23.875 1.8125 
Q 27.296875 1.8125 28.8125 5.109375 
Q 30.328125 8.40625 30.328125 12.203125 
L 30.328125 18.109375 
L 33.203125 18.109375 
L 33.203125 12.015625 
Q 33.203125 8.890625 32.046875 5.828125 
Q 30.90625 2.78125 28.65625 0.828125 
Q 26.421875 -1.125 23.1875 -1.125 
Q 17.1875 -1.125 13.6875 2.46875 
Q 10.203125 6.0625 10.203125 12.015625 
z
" id="Cmr10-74"/>
       <path d="M 3.078125 0 
L 3.078125 3.515625 
Q 6.5 3.515625 8.6875 4.046875 
Q 10.890625 4.59375 10.890625 6.6875 
L 10.890625 33.984375 
Q 10.890625 37.84375 9.390625 38.71875 
Q 7.90625 39.59375 3.515625 39.59375 
L 3.515625 43.109375 
L 17.921875 44.1875 
L 17.921875 6.6875 
Q 17.921875 4.59375 19.828125 4.046875 
Q 21.734375 3.515625 24.90625 3.515625 
L 24.90625 0 
z
M 7.328125 61.375 
Q 7.328125 63.578125 8.984375 65.234375 
Q 10.640625 66.890625 12.796875 66.890625 
Q 14.203125 66.890625 15.515625 66.15625 
Q 16.84375 65.4375 17.578125 64.109375 
Q 18.3125 62.796875 18.3125 61.375 
Q 18.3125 59.234375 16.640625 57.5625 
Q 14.984375 55.90625 12.796875 55.90625 
Q 10.640625 55.90625 8.984375 57.5625 
Q 7.328125 59.234375 7.328125 61.375 
z
" id="Cmr10-69"/>
       <path d="M 3.078125 0 
L 3.078125 3.515625 
Q 6.5 3.515625 8.6875 4.046875 
Q 10.890625 4.59375 10.890625 6.6875 
L 10.890625 59.1875 
Q 10.890625 61.859375 10.078125 63.0625 
Q 9.28125 64.265625 7.765625 64.53125 
Q 6.25 64.796875 3.078125 64.796875 
L 3.078125 68.3125 
L 17.921875 69.390625 
L 17.921875 6.6875 
Q 17.921875 4.59375 20.109375 4.046875 
Q 22.3125 3.515625 25.6875 3.515625 
L 25.6875 0 
z
" id="Cmr10-6c"/>
      </defs>
      <g style="fill:#262626;" transform="translate(93.705 314.923539)scale(0.12 -0.12)">
       <use xlink:href="#Cmr10-4f"/>
       <use x="77.685547" xlink:href="#Cmr10-70"/>
       <use x="133.203125" xlink:href="#Cmr10-74"/>
       <use x="172.021484" xlink:href="#Cmr10-69"/>
       <use x="199.707031" xlink:href="#Cmr10-63"/>
       <use x="244.091797" xlink:href="#Cmr10-61"/>
       <use x="294.091797" xlink:href="#Cmr10-6c"/>
      </g>
     </g>
    </g>
    <g id="ytick_2">
     <g id="line2d_16"/>
     <g id="text_10">
      <!-- SAR VV 5x5 -->
      <defs>
       <path d="M 5.609375 -1.421875 
L 5.609375 21.921875 
Q 5.609375 22.703125 6.5 22.703125 
L 7.71875 22.703125 
Q 8.015625 22.703125 8.25 22.453125 
Q 8.5 22.21875 8.5 21.921875 
Q 8.5 12.109375 14.578125 6.703125 
Q 20.65625 1.3125 30.515625 1.3125 
Q 33.984375 1.3125 36.90625 3.3125 
Q 39.84375 5.328125 41.46875 8.5625 
Q 43.109375 11.8125 43.109375 15.28125 
Q 43.109375 18.3125 41.890625 21.171875 
Q 40.671875 24.03125 38.375 26.125 
Q 36.078125 28.21875 33.203125 28.90625 
L 20.21875 32.078125 
Q 13.765625 33.796875 9.6875 39.09375 
Q 5.609375 44.390625 5.609375 50.984375 
Q 5.609375 56.15625 8.25 60.6875 
Q 10.890625 65.234375 15.359375 67.875 
Q 19.828125 70.515625 25 70.515625 
Q 35.015625 70.515625 40.921875 63.71875 
L 45.015625 70.21875 
Q 45.3125 70.515625 45.703125 70.515625 
L 46.390625 70.515625 
Q 46.6875 70.515625 46.953125 70.28125 
Q 47.21875 70.0625 47.21875 69.671875 
L 47.21875 46.484375 
Q 47.21875 45.609375 46.390625 45.609375 
L 45.21875 45.609375 
Q 44.28125 45.609375 44.28125 46.484375 
Q 44.28125 49.03125 43.421875 52.046875 
Q 42.578125 55.078125 41.0625 57.859375 
Q 39.546875 60.640625 37.796875 62.40625 
Q 32.953125 67.28125 25 67.28125 
Q 21.578125 67.28125 18.703125 65.546875 
Q 15.828125 63.8125 14.109375 60.828125 
Q 12.40625 57.859375 12.40625 54.59375 
Q 12.40625 50.296875 15.0625 46.796875 
Q 17.71875 43.3125 22.015625 42.1875 
L 35.015625 39.015625 
Q 38.234375 38.234375 41.09375 36.203125 
Q 43.953125 34.1875 45.84375 31.5 
Q 47.75 28.8125 48.828125 25.515625 
Q 49.90625 22.21875 49.90625 18.703125 
Q 49.90625 13.28125 47.40625 8.46875 
Q 44.921875 3.65625 40.40625 0.71875 
Q 35.890625 -2.203125 30.515625 -2.203125 
Q 27.203125 -2.203125 23.734375 -1.46875 
Q 20.265625 -0.734375 17.328125 0.78125 
Q 14.40625 2.296875 12.015625 4.6875 
L 7.8125 -1.90625 
Q 7.515625 -2.203125 7.078125 -2.203125 
L 6.5 -2.203125 
Q 5.609375 -2.203125 5.609375 -1.421875 
z
" id="Cmr10-53"/>
       <path d="M 3.328125 0 
L 3.328125 3.515625 
Q 13.625 3.515625 13.625 6.6875 
L 13.625 61.625 
Q 13.625 64.796875 3.328125 64.796875 
L 3.328125 68.3125 
L 34.71875 68.3125 
Q 40.328125 68.3125 46.5 66.28125 
Q 52.6875 64.265625 56.828125 60.109375 
Q 60.984375 55.953125 60.984375 50.203125 
Q 60.984375 46 58.46875 42.703125 
Q 55.953125 39.40625 52.015625 37.1875 
Q 48.09375 34.96875 44 33.984375 
Q 48.484375 32.421875 51.84375 29 
Q 55.21875 25.59375 55.90625 21.1875 
L 57.328125 12.3125 
Q 58.296875 6.296875 59.375 3.34375 
Q 60.453125 0.390625 64.109375 0.390625 
Q 67.234375 0.390625 68.765625 3.296875 
Q 70.3125 6.203125 70.3125 9.625 
Q 70.3125 9.96875 70.625 10.234375 
Q 70.953125 10.5 71.296875 10.5 
L 72.21875 10.5 
Q 73.1875 10.5 73.1875 9.1875 
Q 73.1875 6.453125 72.109375 3.828125 
Q 71.046875 1.21875 69.015625 -0.484375 
Q 67 -2.203125 64.203125 -2.203125 
Q 56.984375 -2.203125 51.78125 1.390625 
Q 46.578125 4.984375 46.578125 11.921875 
L 46.578125 20.796875 
Q 46.578125 25.78125 43.109375 29.34375 
Q 39.65625 32.90625 34.625 32.90625 
L 22.609375 32.90625 
L 22.609375 6.6875 
Q 22.609375 3.515625 32.90625 3.515625 
L 32.90625 0 
z
M 22.609375 35.5 
L 33.296875 35.5 
Q 41.609375 35.5 45.953125 38.84375 
Q 50.296875 42.1875 50.296875 50.203125 
Q 50.296875 58.15625 46 61.46875 
Q 41.703125 64.796875 33.296875 64.796875 
L 27.6875 64.796875 
Q 25.875 64.796875 24.875 64.640625 
Q 23.875 64.5 23.234375 63.796875 
Q 22.609375 63.09375 22.609375 61.625 
z
" id="Cmr10-52"/>
       <path id="Cmr10-20"/>
       <path d="M 35.203125 -1.125 
L 11.625 61.625 
Q 10.75 63.71875 8.25 64.25 
Q 5.765625 64.796875 1.90625 64.796875 
L 1.90625 68.3125 
L 29.390625 68.3125 
L 29.390625 64.796875 
Q 21.09375 64.796875 21.09375 62.203125 
Q 21.140625 62.0625 21.15625 61.9375 
Q 21.1875 61.8125 21.1875 61.625 
L 40.375 10.59375 
L 58.5 58.890625 
Q 58.6875 59.28125 58.6875 60.109375 
Q 58.6875 62.546875 56.4375 63.671875 
Q 54.203125 64.796875 51.421875 64.796875 
L 51.421875 68.3125 
L 73 68.3125 
L 73 64.796875 
Q 69.234375 64.796875 66.375 63.40625 
Q 63.53125 62.015625 62.3125 58.890625 
L 39.703125 -1.125 
Q 39.40625 -2.203125 38.09375 -2.203125 
L 36.8125 -2.203125 
Q 35.5 -2.203125 35.203125 -1.125 
z
" id="Cmr10-56"/>
       <path d="M 1.21875 0 
L 1.21875 3.515625 
Q 5.03125 3.515625 8.390625 5 
Q 11.765625 6.5 14.109375 9.421875 
L 23.1875 21 
L 11.375 36.375 
Q 9.625 38.578125 7.546875 39.078125 
Q 5.46875 39.59375 1.703125 39.59375 
L 1.703125 43.109375 
L 22.515625 43.109375 
L 22.515625 39.59375 
Q 21.1875 39.59375 20.03125 39 
Q 18.890625 38.421875 18.890625 37.3125 
Q 18.890625 36.921875 19.1875 36.375 
L 27.203125 25.984375 
L 33.203125 33.6875 
Q 34.421875 35.15625 34.421875 36.625 
Q 34.421875 37.84375 33.609375 38.71875 
Q 32.8125 39.59375 31.5 39.59375 
L 31.5 43.109375 
L 49.90625 43.109375 
L 49.90625 39.59375 
Q 46.046875 39.59375 42.65625 38.109375 
Q 39.265625 36.625 36.921875 33.6875 
L 29 23.578125 
L 41.796875 6.6875 
Q 43.703125 4.5 45.75 4 
Q 47.796875 3.515625 51.609375 3.515625 
L 51.609375 0 
L 30.8125 0 
L 30.8125 3.515625 
Q 32.03125 3.515625 33.15625 4.09375 
Q 34.28125 4.6875 34.28125 5.8125 
Q 34.28125 6.25 33.984375 6.6875 
L 25 18.609375 
L 17.828125 9.421875 
Q 16.703125 8.15625 16.703125 6.5 
Q 16.703125 5.28125 17.53125 4.390625 
Q 18.359375 3.515625 19.484375 3.515625 
L 19.484375 0 
z
" id="Cmr10-78"/>
      </defs>
      <g style="fill:#262626;" transform="translate(63.51375 291.293176)scale(0.12 -0.12)">
       <use xlink:href="#Cmr10-53"/>
       <use x="55.517578" xlink:href="#Cmr10-41"/>
       <use x="130.517578" xlink:href="#Cmr10-52"/>
       <use x="204.101562" xlink:href="#Cmr10-20"/>
       <use x="237.402344" xlink:href="#Cmr10-56"/>
       <use x="312.402344" xlink:href="#Cmr10-56"/>
       <use x="387.402344" xlink:href="#Cmr10-20"/>
       <use x="420.703125" xlink:href="#Cmr10-35"/>
       <use x="470.703125" xlink:href="#Cmr10-78"/>
       <use x="523.388672" xlink:href="#Cmr10-35"/>
      </g>
     </g>
    </g>
    <g id="ytick_3">
     <g id="line2d_17"/>
     <g id="text_11">
      <!-- SAR VH 5x5 -->
      <defs>
       <path d="M 3.078125 0 
L 3.078125 3.515625 
Q 13.375 3.515625 13.375 6.6875 
L 13.375 61.625 
Q 13.375 64.796875 3.078125 64.796875 
L 3.078125 68.3125 
L 33.015625 68.3125 
L 33.015625 64.796875 
Q 22.703125 64.796875 22.703125 61.625 
L 22.703125 37.3125 
L 52.203125 37.3125 
L 52.203125 61.625 
Q 52.203125 64.796875 41.890625 64.796875 
L 41.890625 68.3125 
L 71.78125 68.3125 
L 71.78125 64.796875 
Q 61.53125 64.796875 61.53125 61.625 
L 61.53125 6.6875 
Q 61.53125 3.515625 71.78125 3.515625 
L 71.78125 0 
L 41.890625 0 
L 41.890625 3.515625 
Q 52.203125 3.515625 52.203125 6.6875 
L 52.203125 33.796875 
L 22.703125 33.796875 
L 22.703125 6.6875 
Q 22.703125 3.515625 33.015625 3.515625 
L 33.015625 0 
z
" id="Cmr10-48"/>
      </defs>
      <g style="fill:#262626;" transform="translate(63.51375 267.730314)scale(0.12 -0.12)">
       <use xlink:href="#Cmr10-53"/>
       <use x="55.517578" xlink:href="#Cmr10-41"/>
       <use x="130.517578" xlink:href="#Cmr10-52"/>
       <use x="204.101562" xlink:href="#Cmr10-20"/>
       <use x="237.402344" xlink:href="#Cmr10-56"/>
       <use x="312.402344" xlink:href="#Cmr10-48"/>
       <use x="387.402344" xlink:href="#Cmr10-20"/>
       <use x="420.703125" xlink:href="#Cmr10-35"/>
       <use x="470.703125" xlink:href="#Cmr10-78"/>
       <use x="523.388672" xlink:href="#Cmr10-35"/>
      </g>
     </g>
    </g>
    <g id="ytick_4">
     <g id="line2d_18"/>
     <g id="text_12">
      <!-- SAR VV VH 5x5 -->
      <g style="fill:#262626;" transform="translate(41.518125 244.167451)scale(0.12 -0.12)">
       <use xlink:href="#Cmr10-53"/>
       <use x="55.517578" xlink:href="#Cmr10-41"/>
       <use x="130.517578" xlink:href="#Cmr10-52"/>
       <use x="204.101562" xlink:href="#Cmr10-20"/>
       <use x="237.402344" xlink:href="#Cmr10-56"/>
       <use x="312.402344" xlink:href="#Cmr10-56"/>
       <use x="387.402344" xlink:href="#Cmr10-20"/>
       <use x="420.703125" xlink:href="#Cmr10-56"/>
       <use x="495.703125" xlink:href="#Cmr10-48"/>
       <use x="570.703125" xlink:href="#Cmr10-20"/>
       <use x="604.003906" xlink:href="#Cmr10-35"/>
       <use x="654.003906" xlink:href="#Cmr10-78"/>
       <use x="706.689453" xlink:href="#Cmr10-35"/>
      </g>
     </g>
    </g>
    <g id="ytick_5">
     <g id="line2d_19"/>
     <g id="text_13">
      <!-- SAR VV VH 7x7 -->
      <g style="fill:#262626;" transform="translate(41.518125 220.604588)scale(0.12 -0.12)">
       <use xlink:href="#Cmr10-53"/>
       <use x="55.517578" xlink:href="#Cmr10-41"/>
       <use x="130.517578" xlink:href="#Cmr10-52"/>
       <use x="204.101562" xlink:href="#Cmr10-20"/>
       <use x="237.402344" xlink:href="#Cmr10-56"/>
       <use x="312.402344" xlink:href="#Cmr10-56"/>
       <use x="387.402344" xlink:href="#Cmr10-20"/>
       <use x="420.703125" xlink:href="#Cmr10-56"/>
       <use x="495.703125" xlink:href="#Cmr10-48"/>
       <use x="570.703125" xlink:href="#Cmr10-20"/>
       <use x="604.003906" xlink:href="#Cmr10-37"/>
       <use x="654.003906" xlink:href="#Cmr10-78"/>
       <use x="706.689453" xlink:href="#Cmr10-37"/>
      </g>
     </g>
    </g>
    <g id="ytick_6">
     <g id="line2d_20"/>
     <g id="text_14">
      <!-- SAR VV VH 9x9 -->
      <g style="fill:#262626;" transform="translate(41.518125 197.041726)scale(0.12 -0.12)">
       <use xlink:href="#Cmr10-53"/>
       <use x="55.517578" xlink:href="#Cmr10-41"/>
       <use x="130.517578" xlink:href="#Cmr10-52"/>
       <use x="204.101562" xlink:href="#Cmr10-20"/>
       <use x="237.402344" xlink:href="#Cmr10-56"/>
       <use x="312.402344" xlink:href="#Cmr10-56"/>
       <use x="387.402344" xlink:href="#Cmr10-20"/>
       <use x="420.703125" xlink:href="#Cmr10-56"/>
       <use x="495.703125" xlink:href="#Cmr10-48"/>
       <use x="570.703125" xlink:href="#Cmr10-20"/>
       <use x="604.003906" xlink:href="#Cmr10-39"/>
       <use x="654.003906" xlink:href="#Cmr10-78"/>
       <use x="706.689453" xlink:href="#Cmr10-39"/>
      </g>
     </g>
    </g>
    <g id="ytick_7">
     <g id="line2d_21"/>
     <g id="text_15">
      <!-- SAR VV VH 11x11 -->
      <g style="fill:#262626;" transform="translate(29.518125 173.478863)scale(0.12 -0.12)">
       <use xlink:href="#Cmr10-53"/>
       <use x="55.517578" xlink:href="#Cmr10-41"/>
       <use x="130.517578" xlink:href="#Cmr10-52"/>
       <use x="204.101562" xlink:href="#Cmr10-20"/>
       <use x="237.402344" xlink:href="#Cmr10-56"/>
       <use x="312.402344" xlink:href="#Cmr10-56"/>
       <use x="387.402344" xlink:href="#Cmr10-20"/>
       <use x="420.703125" xlink:href="#Cmr10-56"/>
       <use x="495.703125" xlink:href="#Cmr10-48"/>
       <use x="570.703125" xlink:href="#Cmr10-20"/>
       <use x="604.003906" xlink:href="#Cmr10-31"/>
       <use x="654.003906" xlink:href="#Cmr10-31"/>
       <use x="704.003906" xlink:href="#Cmr10-78"/>
       <use x="756.689453" xlink:href="#Cmr10-31"/>
       <use x="806.689453" xlink:href="#Cmr10-31"/>
      </g>
     </g>
    </g>
    <g id="ytick_8">
     <g id="line2d_22"/>
     <g id="text_16">
      <!-- SAR VV VH 5x5 9x9 -->
      <g style="fill:#262626;" transform="translate(19.2 149.916)scale(0.12 -0.12)">
       <use xlink:href="#Cmr10-53"/>
       <use x="55.517578" xlink:href="#Cmr10-41"/>
       <use x="130.517578" xlink:href="#Cmr10-52"/>
       <use x="204.101562" xlink:href="#Cmr10-20"/>
       <use x="237.402344" xlink:href="#Cmr10-56"/>
       <use x="312.402344" xlink:href="#Cmr10-56"/>
       <use x="387.402344" xlink:href="#Cmr10-20"/>
       <use x="420.703125" xlink:href="#Cmr10-56"/>
       <use x="495.703125" xlink:href="#Cmr10-48"/>
       <use x="570.703125" xlink:href="#Cmr10-20"/>
       <use x="604.003906" xlink:href="#Cmr10-35"/>
       <use x="654.003906" xlink:href="#Cmr10-78"/>
       <use x="706.689453" xlink:href="#Cmr10-35"/>
       <use x="756.689453" xlink:href="#Cmr10-20"/>
       <use x="789.990234" xlink:href="#Cmr10-39"/>
       <use x="839.990234" xlink:href="#Cmr10-78"/>
       <use x="892.675781" xlink:href="#Cmr10-39"/>
      </g>
     </g>
    </g>
    <g id="ytick_9">
     <g id="line2d_23"/>
     <g id="text_17">
      <!-- SAR VV VH 5x5 11x11 -->
      <g style="fill:#262626;" transform="translate(7.2 126.353138)scale(0.12 -0.12)">
       <use xlink:href="#Cmr10-53"/>
       <use x="55.517578" xlink:href="#Cmr10-41"/>
       <use x="130.517578" xlink:href="#Cmr10-52"/>
       <use x="204.101562" xlink:href="#Cmr10-20"/>
       <use x="237.402344" xlink:href="#Cmr10-56"/>
       <use x="312.402344" xlink:href="#Cmr10-56"/>
       <use x="387.402344" xlink:href="#Cmr10-20"/>
       <use x="420.703125" xlink:href="#Cmr10-56"/>
       <use x="495.703125" xlink:href="#Cmr10-48"/>
       <use x="570.703125" xlink:href="#Cmr10-20"/>
       <use x="604.003906" xlink:href="#Cmr10-35"/>
       <use x="654.003906" xlink:href="#Cmr10-78"/>
       <use x="706.689453" xlink:href="#Cmr10-35"/>
       <use x="756.689453" xlink:href="#Cmr10-20"/>
       <use x="789.990234" xlink:href="#Cmr10-31"/>
       <use x="839.990234" xlink:href="#Cmr10-31"/>
       <use x="889.990234" xlink:href="#Cmr10-78"/>
       <use x="942.675781" xlink:href="#Cmr10-31"/>
       <use x="992.675781" xlink:href="#Cmr10-31"/>
      </g>
     </g>
    </g>
    <g id="ytick_10">
     <g id="line2d_24"/>
     <g id="text_18">
      <!-- Fusion 5x5 -->
      <defs>
       <path d="M 3.078125 0 
L 3.078125 3.515625 
Q 13.375 3.515625 13.375 6.6875 
L 13.375 61.625 
Q 13.375 64.796875 3.078125 64.796875 
L 3.078125 68.3125 
L 58.203125 68.3125 
L 60.984375 45.40625 
L 58.109375 45.40625 
Q 57.421875 51.703125 56.265625 55.34375 
Q 55.125 58.984375 52.921875 61.0625 
Q 50.734375 63.140625 47.046875 63.96875 
Q 43.359375 64.796875 36.921875 64.796875 
L 27.78125 64.796875 
Q 25.984375 64.796875 24.96875 64.640625 
Q 23.96875 64.5 23.328125 63.796875 
Q 22.703125 63.09375 22.703125 61.625 
L 22.703125 35.890625 
L 29.78125 35.890625 
Q 34.90625 35.890625 37.296875 36.796875 
Q 39.703125 37.703125 40.59375 40.09375 
Q 41.5 42.484375 41.5 47.609375 
L 44.390625 47.609375 
L 44.390625 20.703125 
L 41.5 20.703125 
Q 41.5 25.828125 40.59375 28.21875 
Q 39.703125 30.609375 37.296875 31.515625 
Q 34.90625 32.421875 29.78125 32.421875 
L 22.703125 32.421875 
L 22.703125 6.6875 
Q 22.703125 3.515625 35.5 3.515625 
L 35.5 0 
z
" id="Cmr10-46"/>
       <path d="M 3.328125 -0.296875 
L 3.328125 16.015625 
Q 3.328125 16.796875 4.203125 16.796875 
L 5.421875 16.796875 
Q 6 16.796875 6.203125 16.015625 
Q 8.984375 1.515625 19.671875 1.515625 
Q 24.421875 1.515625 27.609375 3.65625 
Q 30.8125 5.8125 30.8125 10.296875 
Q 30.8125 13.53125 28.3125 15.796875 
Q 25.828125 18.0625 22.40625 18.890625 
L 15.71875 20.21875 
Q 12.359375 20.953125 9.59375 22.453125 
Q 6.84375 23.96875 5.078125 26.484375 
Q 3.328125 29 3.328125 32.328125 
Q 3.328125 36.71875 5.640625 39.515625 
Q 7.953125 42.328125 11.65625 43.578125 
Q 15.375 44.828125 19.671875 44.828125 
Q 24.8125 44.828125 28.609375 42.09375 
L 31.5 44.578125 
Q 31.5 44.828125 31.984375 44.828125 
L 32.71875 44.828125 
Q 33.015625 44.828125 33.25 44.546875 
Q 33.5 44.28125 33.5 44 
L 33.5 30.90625 
Q 33.5 29.984375 32.71875 29.984375 
L 31.5 29.984375 
Q 30.609375 29.984375 30.609375 30.90625 
Q 30.609375 36.140625 27.703125 39.3125 
Q 24.8125 42.484375 19.578125 42.484375 
Q 15.09375 42.484375 11.796875 40.8125 
Q 8.5 39.15625 8.5 35.109375 
Q 8.5 32.328125 10.859375 30.546875 
Q 13.234375 28.765625 16.40625 27.984375 
L 23.1875 26.703125 
Q 26.609375 25.921875 29.5625 24.0625 
Q 32.515625 22.21875 34.25 19.375 
Q 35.984375 16.546875 35.984375 12.984375 
Q 35.984375 9.375 34.734375 6.703125 
Q 33.5 4.046875 31.265625 2.28125 
Q 29.046875 0.53125 26.015625 -0.296875 
Q 23 -1.125 19.671875 -1.125 
Q 13.421875 -1.125 8.984375 3.078125 
L 5.328125 -0.875 
Q 5.328125 -1.125 4.78125 -1.125 
L 4.203125 -1.125 
Q 3.328125 -1.125 3.328125 -0.296875 
z
" id="Cmr10-73"/>
       <path d="M 25 -1.125 
Q 19 -1.125 13.859375 1.921875 
Q 8.734375 4.984375 5.75 10.109375 
Q 2.78125 15.234375 2.78125 21.296875 
Q 2.78125 25.875 4.421875 30.125 
Q 6.0625 34.375 9.109375 37.71875 
Q 12.15625 41.0625 16.203125 42.9375 
Q 20.265625 44.828125 25 44.828125 
Q 31.15625 44.828125 36.203125 41.578125 
Q 41.265625 38.328125 44.1875 32.875 
Q 47.125 27.4375 47.125 21.296875 
Q 47.125 15.28125 44.140625 10.125 
Q 41.15625 4.984375 36.046875 1.921875 
Q 30.953125 -1.125 25 -1.125 
z
M 25 1.8125 
Q 33.015625 1.8125 35.6875 7.609375 
Q 38.375 13.421875 38.375 22.40625 
Q 38.375 27.4375 37.84375 30.734375 
Q 37.3125 34.03125 35.5 36.71875 
Q 34.375 38.375 32.640625 39.625 
Q 30.90625 40.875 28.96875 41.53125 
Q 27.046875 42.1875 25 42.1875 
Q 21.875 42.1875 19.0625 40.765625 
Q 16.265625 39.359375 14.40625 36.71875 
Q 12.546875 33.890625 12.03125 30.484375 
Q 11.53125 27.09375 11.53125 22.40625 
Q 11.53125 16.796875 12.5 12.328125 
Q 13.484375 7.859375 16.4375 4.828125 
Q 19.390625 1.8125 25 1.8125 
z
" id="Cmr10-6f"/>
       <path d="M 2.984375 0 
L 2.984375 3.515625 
Q 6.390625 3.515625 8.59375 4.046875 
Q 10.796875 4.59375 10.796875 6.6875 
L 10.796875 33.984375 
Q 10.796875 36.671875 9.984375 37.859375 
Q 9.1875 39.0625 7.671875 39.328125 
Q 6.15625 39.59375 2.984375 39.59375 
L 2.984375 43.109375 
L 17.484375 44.1875 
L 17.484375 34.421875 
Q 19.484375 38.71875 23.40625 41.453125 
Q 27.34375 44.1875 31.984375 44.1875 
Q 38.921875 44.1875 42.40625 40.859375 
Q 45.90625 37.546875 45.90625 30.71875 
L 45.90625 6.6875 
Q 45.90625 4.59375 48.09375 4.046875 
Q 50.296875 3.515625 53.71875 3.515625 
L 53.71875 0 
L 30.8125 0 
L 30.8125 3.515625 
Q 34.234375 3.515625 36.421875 4.046875 
Q 38.625 4.59375 38.625 6.6875 
L 38.625 30.421875 
Q 38.625 35.296875 37.203125 38.453125 
Q 35.796875 41.609375 31.390625 41.609375 
Q 25.59375 41.609375 21.84375 36.96875 
Q 18.109375 32.328125 18.109375 26.421875 
L 18.109375 6.6875 
Q 18.109375 4.59375 20.3125 4.046875 
Q 22.515625 3.515625 25.875 3.515625 
L 25.875 0 
z
" id="Cmr10-6e"/>
      </defs>
      <g style="fill:#262626;" transform="translate(74.803125 102.790275)scale(0.12 -0.12)">
       <use xlink:href="#Cmr10-46"/>
       <use x="65.185547" xlink:href="#Cmr10-75"/>
       <use x="120.703125" xlink:href="#Cmr10-73"/>
       <use x="160.107422" xlink:href="#Cmr10-69"/>
       <use x="187.792969" xlink:href="#Cmr10-6f"/>
       <use x="237.792969" xlink:href="#Cmr10-6e"/>
       <use x="293.310547" xlink:href="#Cmr10-20"/>
       <use x="326.611328" xlink:href="#Cmr10-35"/>
       <use x="376.611328" xlink:href="#Cmr10-78"/>
       <use x="429.296875" xlink:href="#Cmr10-35"/>
      </g>
     </g>
    </g>
    <g id="ytick_11">
     <g id="line2d_25"/>
     <g id="text_19">
      <!-- Fusion 9x9 -->
      <g style="fill:#262626;" transform="translate(74.803125 79.227412)scale(0.12 -0.12)">
       <use xlink:href="#Cmr10-46"/>
       <use x="65.185547" xlink:href="#Cmr10-75"/>
       <use x="120.703125" xlink:href="#Cmr10-73"/>
       <use x="160.107422" xlink:href="#Cmr10-69"/>
       <use x="187.792969" xlink:href="#Cmr10-6f"/>
       <use x="237.792969" xlink:href="#Cmr10-6e"/>
       <use x="293.310547" xlink:href="#Cmr10-20"/>
       <use x="326.611328" xlink:href="#Cmr10-39"/>
       <use x="376.611328" xlink:href="#Cmr10-78"/>
       <use x="429.296875" xlink:href="#Cmr10-39"/>
      </g>
     </g>
    </g>
    <g id="ytick_12">
     <g id="line2d_26"/>
     <g id="text_20">
      <!-- Fusion 11x11 -->
      <g style="fill:#262626;" transform="translate(62.803125 55.66455)scale(0.12 -0.12)">
       <use xlink:href="#Cmr10-46"/>
       <use x="65.185547" xlink:href="#Cmr10-75"/>
       <use x="120.703125" xlink:href="#Cmr10-73"/>
       <use x="160.107422" xlink:href="#Cmr10-69"/>
       <use x="187.792969" xlink:href="#Cmr10-6f"/>
       <use x="237.792969" xlink:href="#Cmr10-6e"/>
       <use x="293.310547" xlink:href="#Cmr10-20"/>
       <use x="326.611328" xlink:href="#Cmr10-31"/>
       <use x="376.611328" xlink:href="#Cmr10-31"/>
       <use x="426.611328" xlink:href="#Cmr10-78"/>
       <use x="479.296875" xlink:href="#Cmr10-31"/>
       <use x="529.296875" xlink:href="#Cmr10-31"/>
      </g>
     </g>
    </g>
   </g>
   <g id="patch_3">
    <path clip-path="url(#pbcdd53c035)" d="M -488.40625 320.706818 
L 343.693248 320.706818 
L 343.693248 314.816103 
L -488.40625 314.816103 
z
" style="fill:#ff8c00;"/>
   </g>
   <g id="patch_4">
    <path clip-path="url(#pbcdd53c035)" d="M -488.40625 297.143956 
L 383.436912 297.143956 
L 383.436912 291.25324 
L -488.40625 291.25324 
z
" style="fill:#ff8c00;"/>
   </g>
   <g id="patch_5">
    <path clip-path="url(#pbcdd53c035)" d="M -488.40625 273.581093 
L 394.150036 273.581093 
L 394.150036 267.690377 
L -488.40625 267.690377 
z
" style="fill:#ff8c00;"/>
   </g>
   <g id="patch_6">
    <path clip-path="url(#pbcdd53c035)" d="M -488.40625 250.01823 
L 388.513513 250.01823 
L 388.513513 244.127515 
L -488.40625 244.127515 
z
" style="fill:#ff8c00;"/>
   </g>
   <g id="patch_7">
    <path clip-path="url(#pbcdd53c035)" d="M -488.40625 226.455368 
L 387.489346 226.455368 
L 387.489346 220.564652 
L -488.40625 220.564652 
z
" style="fill:#ff8c00;"/>
   </g>
   <g id="patch_8">
    <path clip-path="url(#pbcdd53c035)" d="M -488.40625 202.892505 
L 387.645837 202.892505 
L 387.645837 197.001789 
L -488.40625 197.001789 
z
" style="fill:#ff8c00;"/>
   </g>
   <g id="patch_9">
    <path clip-path="url(#pbcdd53c035)" d="M -488.40625 179.329642 
L 387.995575 179.329642 
L 387.995575 173.438926 
L -488.40625 173.438926 
z
" style="fill:#ff8c00;"/>
   </g>
   <g id="patch_10">
    <path clip-path="url(#pbcdd53c035)" d="M -488.40625 155.766779 
L 388.819637 155.766779 
L 388.819637 149.876064 
L -488.40625 149.876064 
z
" style="fill:#ff8c00;"/>
   </g>
   <g id="patch_11">
    <path clip-path="url(#pbcdd53c035)" d="M -488.40625 132.203917 
L 389.221681 132.203917 
L 389.221681 126.313201 
L -488.40625 126.313201 
z
" style="fill:#ff8c00;"/>
   </g>
   <g id="patch_12">
    <path clip-path="url(#pbcdd53c035)" d="M -488.40625 108.641054 
L 382.394515 108.641054 
L 382.394515 102.750338 
L -488.40625 102.750338 
z
" style="fill:#ff8c00;"/>
   </g>
   <g id="patch_13">
    <path clip-path="url(#pbcdd53c035)" d="M -488.40625 85.078191 
L 386.159435 85.078191 
L 386.159435 79.187476 
L -488.40625 79.187476 
z
" style="fill:#ff8c00;"/>
   </g>
   <g id="patch_14">
    <path clip-path="url(#pbcdd53c035)" d="M -488.40625 61.515329 
L 387.360363 61.515329 
L 387.360363 55.624613 
L -488.40625 55.624613 
z
" style="fill:#ff8c00;"/>
   </g>
   <g id="patch_15">
    <path clip-path="url(#pbcdd53c035)" d="M -488.40625 314.816103 
L 378.132198 314.816103 
L 378.132198 308.925387 
L -488.40625 308.925387 
z
" style="fill:#90ee90;"/>
   </g>
   <g id="patch_16">
    <path clip-path="url(#pbcdd53c035)" d="M -488.40625 291.25324 
L 331.432399 291.25324 
L 331.432399 285.362524 
L -488.40625 285.362524 
z
" style="fill:#90ee90;"/>
   </g>
   <g id="patch_17">
    <path clip-path="url(#pbcdd53c035)" d="M -488.40625 267.690377 
L 335.613979 267.690377 
L 335.613979 261.799662 
L -488.40625 261.799662 
z
" style="fill:#90ee90;"/>
   </g>
   <g id="patch_18">
    <path clip-path="url(#pbcdd53c035)" d="M -488.40625 244.127515 
L 341.202553 244.127515 
L 341.202553 238.236799 
L -488.40625 238.236799 
z
" style="fill:#90ee90;"/>
   </g>
   <g id="patch_19">
    <path clip-path="url(#pbcdd53c035)" d="M -488.40625 220.564652 
L 344.056866 220.564652 
L 344.056866 214.673936 
L -488.40625 214.673936 
z
" style="fill:#90ee90;"/>
   </g>
   <g id="patch_20">
    <path clip-path="url(#pbcdd53c035)" d="M -488.40625 197.001789 
L 346.230824 197.001789 
L 346.230824 191.111074 
L -488.40625 191.111074 
z
" style="fill:#90ee90;"/>
   </g>
   <g id="patch_21">
    <path clip-path="url(#pbcdd53c035)" d="M -488.40625 173.438926 
L 345.993731 173.438926 
L 345.993731 167.548211 
L -488.40625 167.548211 
z
" style="fill:#90ee90;"/>
   </g>
   <g id="patch_22">
    <path clip-path="url(#pbcdd53c035)" d="M -488.40625 149.876064 
L 347.524729 149.876064 
L 347.524729 143.985348 
L -488.40625 143.985348 
z
" style="fill:#90ee90;"/>
   </g>
   <g id="patch_23">
    <path clip-path="url(#pbcdd53c035)" d="M -488.40625 126.313201 
L 348.845078 126.313201 
L 348.845078 120.422485 
L -488.40625 120.422485 
z
" style="fill:#90ee90;"/>
   </g>
   <g id="patch_24">
    <path clip-path="url(#pbcdd53c035)" d="M -488.40625 102.750338 
L 380.61695 102.750338 
L 380.61695 96.859623 
L -488.40625 96.859623 
z
" style="fill:#90ee90;"/>
   </g>
   <g id="patch_25">
    <path clip-path="url(#pbcdd53c035)" d="M -488.40625 79.187476 
L 380.872574 79.187476 
L 380.872574 73.29676 
L -488.40625 73.29676 
z
" style="fill:#90ee90;"/>
   </g>
   <g id="patch_26">
    <path clip-path="url(#pbcdd53c035)" d="M -488.40625 55.624613 
L 379.810128 55.624613 
L 379.810128 49.733897 
L -488.40625 49.733897 
z
" style="fill:#90ee90;"/>
   </g>
   <g id="patch_27">
    <path clip-path="url(#pbcdd53c035)" d="M -488.40625 308.925387 
L 402.53565 308.925387 
L 402.53565 303.034671 
L -488.40625 303.034671 
z
" style="fill:#228b22;"/>
   </g>
   <g id="patch_28">
    <path clip-path="url(#pbcdd53c035)" d="M -488.40625 285.362524 
L 248.437149 285.362524 
L 248.437149 279.471809 
L -488.40625 279.471809 
z
" style="fill:#228b22;"/>
   </g>
   <g id="patch_29">
    <path clip-path="url(#pbcdd53c035)" d="M -488.40625 261.799662 
L 184.863142 261.799662 
L 184.863142 255.908946 
L -488.40625 255.908946 
z
" style="fill:#228b22;"/>
   </g>
   <g id="patch_30">
    <path clip-path="url(#pbcdd53c035)" d="M -488.40625 238.236799 
L 270.328355 238.236799 
L 270.328355 232.346083 
L -488.40625 232.346083 
z
" style="fill:#228b22;"/>
   </g>
   <g id="patch_31">
    <path clip-path="url(#pbcdd53c035)" d="M -488.40625 214.673936 
L 277.86954 214.673936 
L 277.86954 208.783221 
L -488.40625 208.783221 
z
" style="fill:#228b22;"/>
   </g>
   <g id="patch_32">
    <path clip-path="url(#pbcdd53c035)" d="M -488.40625 191.111074 
L 280.468922 191.111074 
L 280.468922 185.220358 
L -488.40625 185.220358 
z
" style="fill:#228b22;"/>
   </g>
   <g id="patch_33">
    <path clip-path="url(#pbcdd53c035)" d="M -488.40625 167.548211 
L 279.621896 167.548211 
L 279.621896 161.657495 
L -488.40625 161.657495 
z
" style="fill:#228b22;"/>
   </g>
   <g id="patch_34">
    <path clip-path="url(#pbcdd53c035)" d="M -488.40625 143.985348 
L 288.067403 143.985348 
L 288.067403 138.094632 
L -488.40625 138.094632 
z
" style="fill:#228b22;"/>
   </g>
   <g id="patch_35">
    <path clip-path="url(#pbcdd53c035)" d="M -488.40625 120.422485 
L 286.947872 120.422485 
L 286.947872 114.53177 
L -488.40625 114.53177 
z
" style="fill:#228b22;"/>
   </g>
   <g id="patch_36">
    <path clip-path="url(#pbcdd53c035)" d="M -488.40625 96.859623 
L 403.405737 96.859623 
L 403.405737 90.968907 
L -488.40625 90.968907 
z
" style="fill:#228b22;"/>
   </g>
   <g id="patch_37">
    <path clip-path="url(#pbcdd53c035)" d="M -488.40625 73.29676 
L 402.489383 73.29676 
L 402.489383 67.406044 
L -488.40625 67.406044 
z
" style="fill:#228b22;"/>
   </g>
   <g id="patch_38">
    <path clip-path="url(#pbcdd53c035)" d="M -488.40625 49.733897 
L 401.780206 49.733897 
L 401.780206 43.843182 
L -488.40625 43.843182 
z
" style="fill:#228b22;"/>
   </g>
   <g id="patch_39">
    <path d="M 137.91875 334.55 
L 137.91875 30 
" style="fill:none;stroke:#cccccc;stroke-linecap:square;stroke-linejoin:miter;"/>
   </g>
   <g id="patch_40">
    <path d="M 406.34375 334.55 
L 406.34375 30 
" style="fill:none;stroke:#cccccc;stroke-linecap:square;stroke-linejoin:miter;"/>
   </g>
  </g>
  <g id="legend_1">
   <g id="patch_41">
    <path d="M 107.910937 14.255 
L 119.910937 14.255 
L 119.910937 5.855 
L 107.910937 5.855 
z
" style="fill:#ff8c00;"/>
   </g>
   <g id="text_21">
    <!-- Bare soil -->
    <defs>
     <path d="M 3.421875 0 
L 3.421875 3.515625 
Q 13.71875 3.515625 13.71875 6.6875 
L 13.71875 61.625 
Q 13.71875 64.796875 3.421875 64.796875 
L 3.421875 68.3125 
L 40.1875 68.3125 
Q 45.265625 68.3125 50.4375 66.328125 
Q 55.609375 64.359375 59 60.46875 
Q 62.40625 56.59375 62.40625 51.3125 
Q 62.40625 45.21875 57.390625 41.09375 
Q 52.390625 36.96875 45.703125 35.6875 
Q 50.046875 35.6875 54.640625 33.296875 
Q 59.234375 30.90625 62.15625 26.90625 
Q 65.09375 22.90625 65.09375 18.40625 
Q 65.09375 12.9375 61.84375 8.734375 
Q 58.59375 4.546875 53.421875 2.265625 
Q 48.25 0 43.015625 0 
z
M 22.40625 6.6875 
Q 22.40625 4.546875 23.625 4.03125 
Q 24.859375 3.515625 27.484375 3.515625 
L 40.1875 3.515625 
Q 44.09375 3.515625 47.4375 5.5625 
Q 50.78125 7.625 52.734375 11.0625 
Q 54.6875 14.5 54.6875 18.40625 
Q 54.6875 22.21875 53.078125 25.859375 
Q 51.46875 29.5 48.453125 31.84375 
Q 45.453125 34.1875 41.609375 34.1875 
L 22.40625 34.1875 
z
M 22.40625 36.8125 
L 37.40625 36.8125 
Q 40.4375 36.8125 43.09375 37.90625 
Q 45.75 39.015625 47.875 41.09375 
Q 50 43.171875 51.140625 45.78125 
Q 52.296875 48.390625 52.296875 51.3125 
Q 52.296875 53.90625 51.4375 56.296875 
Q 50.59375 58.6875 48.921875 60.640625 
Q 47.265625 62.59375 45.015625 63.6875 
Q 42.78125 64.796875 40.1875 64.796875 
L 27.484375 64.796875 
Q 25.6875 64.796875 24.6875 64.640625 
Q 23.6875 64.5 23.046875 63.796875 
Q 22.40625 63.09375 22.40625 61.625 
z
" id="Cmr10-42"/>
     <path d="M 24.90625 -1.125 
Q 18.796875 -1.125 13.6875 2.078125 
Q 8.59375 5.28125 5.6875 10.625 
Q 2.78125 15.96875 2.78125 21.921875 
Q 2.78125 27.78125 5.4375 33.046875 
Q 8.109375 38.328125 12.859375 41.578125 
Q 17.625 44.828125 23.484375 44.828125 
Q 28.078125 44.828125 31.46875 43.28125 
Q 34.859375 41.75 37.0625 39.015625 
Q 39.265625 36.28125 40.375 32.5625 
Q 41.5 28.859375 41.5 24.421875 
Q 41.5 23.09375 40.484375 23.09375 
L 11.53125 23.09375 
L 11.53125 22.015625 
Q 11.53125 13.71875 14.875 7.765625 
Q 18.21875 1.8125 25.78125 1.8125 
Q 28.859375 1.8125 31.46875 3.171875 
Q 34.078125 4.546875 36 6.984375 
Q 37.9375 9.421875 38.625 12.203125 
Q 38.71875 12.546875 38.984375 12.8125 
Q 39.265625 13.09375 39.59375 13.09375 
L 40.484375 13.09375 
Q 41.5 13.09375 41.5 11.8125 
Q 40.09375 6.15625 35.40625 2.515625 
Q 30.71875 -1.125 24.90625 -1.125 
z
M 11.625 25.59375 
L 34.421875 25.59375 
Q 34.421875 29.34375 33.375 33.203125 
Q 32.328125 37.0625 29.875 39.625 
Q 27.4375 42.1875 23.484375 42.1875 
Q 17.828125 42.1875 14.71875 36.890625 
Q 11.625 31.59375 11.625 25.59375 
z
" id="Cmr10-65"/>
    </defs>
    <g style="fill:#262626;" transform="translate(122.910937 14.255)scale(0.12 -0.12)">
     <use xlink:href="#Cmr10-42"/>
     <use x="70.800781" xlink:href="#Cmr10-61"/>
     <use x="120.800781" xlink:href="#Cmr10-72"/>
     <use x="159.912109" xlink:href="#Cmr10-65"/>
     <use x="204.296875" xlink:href="#Cmr10-20"/>
     <use x="237.597656" xlink:href="#Cmr10-73"/>
     <use x="277.001953" xlink:href="#Cmr10-6f"/>
     <use x="327.001953" xlink:href="#Cmr10-69"/>
     <use x="354.6875" xlink:href="#Cmr10-6c"/>
    </g>
   </g>
   <g id="patch_42">
    <path d="M 192.795937 14.255 
L 204.795937 14.255 
L 204.795937 5.855 
L 192.795937 5.855 
z
" style="fill:#90ee90;"/>
   </g>
   <g id="text_22">
    <!-- Low vegetation -->
    <defs>
     <path d="M 3.078125 0 
L 3.078125 3.515625 
Q 13.375 3.515625 13.375 6.6875 
L 13.375 61.625 
Q 13.375 64.796875 3.078125 64.796875 
L 3.078125 68.3125 
L 35.5 68.3125 
L 35.5 64.796875 
Q 22.703125 64.796875 22.703125 61.625 
L 22.703125 6.6875 
Q 22.703125 4.546875 23.921875 4.03125 
Q 25.140625 3.515625 27.78125 3.515625 
L 35.5 3.515625 
Q 42.96875 3.515625 47.015625 6.25 
Q 51.078125 8.984375 52.75 13.6875 
Q 54.4375 18.40625 55.328125 26.21875 
L 58.203125 26.21875 
L 55.421875 0 
z
" id="Cmr10-4c"/>
     <path d="M 22.125 0 
L 9.1875 36.375 
Q 8.296875 38.578125 6.640625 39.078125 
Q 4.984375 39.59375 1.8125 39.59375 
L 1.8125 43.109375 
L 22.40625 43.109375 
L 22.40625 39.59375 
Q 16.5 39.59375 16.5 37.109375 
Q 16.546875 36.96875 16.578125 36.8125 
Q 16.609375 36.671875 16.609375 36.375 
L 26.21875 9.421875 
L 34.515625 32.90625 
L 33.203125 36.375 
Q 32.421875 38.578125 30.703125 39.078125 
Q 29 39.59375 25.875 39.59375 
L 25.875 43.109375 
L 45.609375 43.109375 
L 45.609375 39.59375 
Q 39.703125 39.59375 39.703125 37.109375 
Q 39.703125 36.71875 39.796875 36.375 
L 49.8125 8.203125 
L 58.890625 33.6875 
Q 59.078125 34.46875 59.078125 35.109375 
Q 59.078125 37.203125 57.296875 38.390625 
Q 55.515625 39.59375 53.328125 39.59375 
L 53.328125 43.109375 
L 70.3125 43.109375 
L 70.3125 39.59375 
Q 67.28125 39.59375 65.109375 38 
Q 62.9375 36.421875 61.921875 33.6875 
L 50 0 
Q 49.65625 -1.125 48.484375 -1.125 
L 47.703125 -1.125 
Q 46.53125 -1.125 46.1875 0 
L 36.078125 28.515625 
L 25.984375 0 
Q 25.484375 -1.125 24.421875 -1.125 
L 23.6875 -1.125 
Q 22.46875 -1.125 22.125 0 
z
" id="Cmr10-77"/>
     <path d="M 24.421875 0 
L 9.8125 36.71875 
Q 8.890625 38.578125 6.953125 39.078125 
Q 5.03125 39.59375 1.90625 39.59375 
L 1.90625 43.109375 
L 22.90625 43.109375 
L 22.90625 39.59375 
Q 17.28125 39.59375 17.28125 37.203125 
Q 17.28125 36.8125 17.390625 36.625 
L 28.609375 8.40625 
L 38.71875 33.890625 
Q 39.015625 34.671875 39.015625 35.5 
Q 39.015625 37.40625 37.578125 38.5 
Q 36.140625 39.59375 34.1875 39.59375 
L 34.1875 43.109375 
L 50.78125 43.109375 
L 50.78125 39.59375 
Q 47.703125 39.59375 45.375 38.171875 
Q 43.0625 36.765625 41.796875 33.984375 
L 28.328125 0 
Q 27.9375 -1.125 26.703125 -1.125 
L 25.984375 -1.125 
Q 24.75 -1.125 24.421875 0 
z
" id="Cmr10-76"/>
     <path d="M 2.78125 -7.8125 
Q 2.78125 -4.25 5.359375 -1.578125 
Q 7.953125 1.078125 11.53125 2.203125 
Q 9.515625 3.71875 8.46875 6 
Q 7.421875 8.296875 7.421875 10.890625 
Q 7.421875 15.578125 10.40625 19.1875 
Q 5.8125 23.6875 5.8125 29.5 
Q 5.8125 32.625 7.15625 35.359375 
Q 8.5 38.09375 10.890625 40.09375 
Q 13.28125 42.09375 16.203125 43.140625 
Q 19.140625 44.1875 22.21875 44.1875 
Q 28.171875 44.1875 32.90625 40.71875 
Q 34.96875 42.921875 37.765625 44.109375 
Q 40.578125 45.3125 43.609375 45.3125 
Q 45.75 45.3125 47.109375 43.765625 
Q 48.484375 42.234375 48.484375 40.09375 
Q 48.484375 38.875 47.546875 37.9375 
Q 46.625 37.015625 45.40625 37.015625 
Q 44.140625 37.015625 43.203125 37.9375 
Q 42.28125 38.875 42.28125 40.09375 
Q 42.28125 41.9375 43.5 42.671875 
Q 38.328125 42.671875 34.625 39.109375 
Q 36.421875 37.3125 37.515625 34.6875 
Q 38.625 32.078125 38.625 29.5 
Q 38.625 25.25 36.28125 21.84375 
Q 33.9375 18.453125 30.09375 16.578125 
Q 26.265625 14.703125 22.21875 14.703125 
Q 16.75 14.703125 12.203125 17.671875 
Q 10.796875 15.71875 10.796875 13.28125 
Q 10.796875 10.640625 12.53125 8.65625 
Q 14.265625 6.6875 16.890625 6.6875 
L 25.09375 6.6875 
Q 31.0625 6.6875 35.84375 5.609375 
Q 40.625 4.546875 43.875 1.3125 
Q 47.125 -1.90625 47.125 -7.8125 
Q 47.125 -12.203125 43.40625 -15.109375 
Q 39.703125 -18.015625 34.546875 -19.3125 
Q 29.390625 -20.609375 25 -20.609375 
Q 20.5625 -20.609375 15.375 -19.3125 
Q 10.203125 -18.015625 6.484375 -15.109375 
Q 2.78125 -12.203125 2.78125 -7.8125 
z
M 8.40625 -7.8125 
Q 8.40625 -11.1875 11.140625 -13.453125 
Q 13.875 -15.71875 17.71875 -16.8125 
Q 21.578125 -17.921875 25 -17.921875 
Q 28.375 -17.921875 32.21875 -16.8125 
Q 36.078125 -15.71875 38.78125 -13.453125 
Q 41.5 -11.1875 41.5 -7.8125 
Q 41.5 -2.59375 36.71875 -1.046875 
Q 31.9375 0.484375 25.09375 0.484375 
L 16.890625 0.484375 
Q 14.59375 0.484375 12.671875 -0.609375 
Q 10.75 -1.703125 9.578125 -3.6875 
Q 8.40625 -5.671875 8.40625 -7.8125 
z
M 22.21875 17.390625 
Q 30.71875 17.390625 30.71875 29.5 
Q 30.71875 34.71875 28.90625 38.109375 
Q 27.09375 41.5 22.21875 41.5 
Q 17.328125 41.5 15.515625 38.109375 
Q 13.71875 34.71875 13.71875 29.5 
Q 13.71875 26.171875 14.40625 23.484375 
Q 15.09375 20.796875 16.9375 19.09375 
Q 18.796875 17.390625 22.21875 17.390625 
z
" id="Cmr10-67"/>
    </defs>
    <g style="fill:#262626;" transform="translate(207.795937 14.255)scale(0.12 -0.12)">
     <use xlink:href="#Cmr10-4c"/>
     <use x="62.5" xlink:href="#Cmr10-6f"/>
     <use x="112.5" xlink:href="#Cmr10-77"/>
     <use x="184.716797" xlink:href="#Cmr10-20"/>
     <use x="218.017578" xlink:href="#Cmr10-76"/>
     <use x="270.703125" xlink:href="#Cmr10-65"/>
     <use x="315.087891" xlink:href="#Cmr10-67"/>
     <use x="365.087891" xlink:href="#Cmr10-65"/>
     <use x="409.472656" xlink:href="#Cmr10-74"/>
     <use x="448.291016" xlink:href="#Cmr10-61"/>
     <use x="498.291016" xlink:href="#Cmr10-74"/>
     <use x="537.109375" xlink:href="#Cmr10-69"/>
     <use x="564.794922" xlink:href="#Cmr10-6f"/>
     <use x="614.794922" xlink:href="#Cmr10-6e"/>
    </g>
   </g>
   <g id="patch_43">
    <path d="M 312.233437 14.255 
L 324.233437 14.255 
L 324.233437 5.855 
L 312.233437 5.855 
z
" style="fill:#228b22;"/>
   </g>
   <g id="text_23">
    <!-- High vegetation -->
    <defs>
     <path d="M 2.984375 0 
L 2.984375 3.515625 
Q 6.390625 3.515625 8.59375 4.046875 
Q 10.796875 4.59375 10.796875 6.6875 
L 10.796875 59.1875 
Q 10.796875 61.859375 9.984375 63.0625 
Q 9.1875 64.265625 7.671875 64.53125 
Q 6.15625 64.796875 2.984375 64.796875 
L 2.984375 68.3125 
L 17.828125 69.390625 
L 17.828125 35.015625 
Q 19.921875 39.15625 23.671875 41.671875 
Q 27.4375 44.1875 31.984375 44.1875 
Q 38.921875 44.1875 42.40625 40.859375 
Q 45.90625 37.546875 45.90625 30.71875 
L 45.90625 6.6875 
Q 45.90625 4.59375 48.09375 4.046875 
Q 50.296875 3.515625 53.71875 3.515625 
L 53.71875 0 
L 30.8125 0 
L 30.8125 3.515625 
Q 34.234375 3.515625 36.421875 4.046875 
Q 38.625 4.59375 38.625 6.6875 
L 38.625 30.421875 
Q 38.625 35.296875 37.203125 38.453125 
Q 35.796875 41.609375 31.390625 41.609375 
Q 25.59375 41.609375 21.84375 36.96875 
Q 18.109375 32.328125 18.109375 26.421875 
L 18.109375 6.6875 
Q 18.109375 4.59375 20.3125 4.046875 
Q 22.515625 3.515625 25.875 3.515625 
L 25.875 0 
z
" id="Cmr10-68"/>
    </defs>
    <g style="fill:#262626;" transform="translate(327.233437 14.255)scale(0.12 -0.12)">
     <use xlink:href="#Cmr10-48"/>
     <use x="75" xlink:href="#Cmr10-69"/>
     <use x="102.685547" xlink:href="#Cmr10-67"/>
     <use x="152.685547" xlink:href="#Cmr10-68"/>
     <use x="208.203125" xlink:href="#Cmr10-20"/>
     <use x="241.503906" xlink:href="#Cmr10-76"/>
     <use x="294.189453" xlink:href="#Cmr10-65"/>
     <use x="338.574219" xlink:href="#Cmr10-67"/>
     <use x="388.574219" xlink:href="#Cmr10-65"/>
     <use x="432.958984" xlink:href="#Cmr10-74"/>
     <use x="471.777344" xlink:href="#Cmr10-61"/>
     <use x="521.777344" xlink:href="#Cmr10-74"/>
     <use x="560.595703" xlink:href="#Cmr10-69"/>
     <use x="588.28125" xlink:href="#Cmr10-6f"/>
     <use x="638.28125" xlink:href="#Cmr10-6e"/>
    </g>
   </g>
  </g>
 </g>
 <defs>
  <clipPath id="pbcdd53c035">
   <rect height="304.55" width="268.425" x="137.91875" y="30"/>
  </clipPath>
 </defs>
</svg>
