<?xml version="1.0" encoding="utf-8" standalone="no"?>
<!DOCTYPE svg PUBLIC "-//W3C//DTD SVG 1.1//EN"
  "http://www.w3.org/Graphics/SVG/1.1/DTD/svg11.dtd">
<!-- Created with matplotlib (http://matplotlib.org/) -->
<svg height="360pt" version="1.1" viewBox="0 0 360 360" width="360pt" xmlns="http://www.w3.org/2000/svg" xmlns:xlink="http://www.w3.org/1999/xlink">
 <defs>
  <style type="text/css">
*{stroke-linecap:butt;stroke-linejoin:round;}
  </style>
 </defs>
 <g id="figure_1">
  <g id="patch_1">
   <path d="M 0 360 
L 360 360 
L 360 0 
L 0 0 
z
" style="fill:#ffffff;"/>
  </g>
  <g id="axes_1">
   <g id="patch_2">
    <path d="M 88.775 347.075 
L 335.2 347.075 
L 335.2 10.8 
L 88.775 10.8 
z
" style="fill:#ffffff;"/>
   </g>
   <g id="matplotlib.axis_1">
    <g id="xtick_1">
     <g id="line2d_1"/>
     <g id="text_1">
      <!-- 0% -->
      <defs>
       <path d="M 25 -2.203125 
Q 12.75 -2.203125 8.328125 7.875 
Q 3.90625 17.96875 3.90625 31.890625 
Q 3.90625 40.578125 5.484375 48.234375 
Q 7.078125 55.90625 11.78125 61.25 
Q 16.5 66.609375 25 66.609375 
Q 31.59375 66.609375 35.78125 63.375 
Q 39.984375 60.15625 42.1875 55.046875 
Q 44.390625 49.953125 45.1875 44.109375 
Q 46 38.28125 46 31.890625 
Q 46 23.296875 44.40625 15.796875 
Q 42.828125 8.296875 38.1875 3.046875 
Q 33.546875 -2.203125 25 -2.203125 
z
M 25 0.390625 
Q 30.5625 0.390625 33.296875 6.09375 
Q 36.03125 11.8125 36.671875 18.75 
Q 37.3125 25.6875 37.3125 33.5 
Q 37.3125 41.015625 36.671875 47.359375 
Q 36.03125 53.71875 33.3125 58.859375 
Q 30.609375 64.015625 25 64.015625 
Q 19.34375 64.015625 16.609375 58.828125 
Q 13.875 53.65625 13.234375 47.328125 
Q 12.59375 41.015625 12.59375 33.5 
Q 12.59375 27.9375 12.859375 23 
Q 13.140625 18.0625 14.3125 12.8125 
Q 15.484375 7.5625 18.09375 3.96875 
Q 20.703125 0.390625 25 0.390625 
z
" id="Cmr10-30"/>
       <path d="M 13.921875 -3.609375 
Q 13.921875 -3.03125 14.203125 -2.59375 
L 59.515625 64.890625 
Q 53.515625 61.53125 46.296875 61.53125 
Q 38.484375 61.53125 31.296875 65.578125 
Q 33.296875 60.796875 33.296875 54.890625 
Q 33.296875 51.65625 32.53125 48.21875 
Q 31.78125 44.78125 30.21875 41.71875 
Q 28.65625 38.671875 26.1875 36.6875 
Q 23.734375 34.71875 20.40625 34.71875 
Q 15.71875 34.71875 12.34375 37.84375 
Q 8.984375 40.96875 7.296875 45.65625 
Q 5.609375 50.34375 5.609375 54.890625 
Q 5.609375 59.328125 7.296875 64.03125 
Q 8.984375 68.75 12.34375 71.875 
Q 15.71875 75 20.40625 75 
Q 24.125 75 27.203125 72.015625 
Q 35.25 64.109375 46.296875 64.109375 
Q 52.203125 64.109375 57.328125 66.71875 
Q 62.453125 69.34375 65.71875 74.21875 
Q 66.21875 75 67.28125 75 
Q 68.171875 75 68.71875 74.453125 
Q 69.28125 73.921875 69.28125 73 
Q 69.28125 72.46875 69 72.015625 
L 17.390625 -4.984375 
Q 16.9375 -5.609375 15.921875 -5.609375 
Q 15.09375 -5.609375 14.5 -4.96875 
Q 13.921875 -4.34375 13.921875 -3.609375 
z
M 20.40625 37.3125 
Q 25.34375 37.3125 27.875 43.1875 
Q 30.421875 49.078125 30.421875 54.890625 
Q 30.421875 58.15625 29.375 62.328125 
Q 28.328125 66.5 26.078125 69.453125 
Q 23.828125 72.40625 20.40625 72.40625 
Q 15.4375 72.40625 13.8125 66.859375 
Q 12.203125 61.328125 12.203125 54.78125 
Q 12.203125 48.484375 13.859375 42.890625 
Q 15.53125 37.3125 20.40625 37.3125 
z
M 64.703125 -5.609375 
Q 60.015625 -5.609375 56.640625 -2.484375 
Q 53.265625 0.640625 51.578125 5.34375 
Q 49.90625 10.0625 49.90625 14.59375 
Q 49.90625 19.046875 51.578125 23.75 
Q 53.265625 28.46875 56.640625 31.59375 
Q 60.015625 34.71875 64.703125 34.71875 
Q 69.046875 34.71875 71.96875 31.421875 
Q 74.90625 28.125 76.25 23.484375 
Q 77.59375 18.84375 77.59375 14.59375 
Q 77.59375 11.375 76.828125 7.953125 
Q 76.078125 4.546875 74.53125 1.4375 
Q 73 -1.65625 70.53125 -3.625 
Q 68.0625 -5.609375 64.703125 -5.609375 
z
M 64.703125 -2.984375 
Q 68.0625 -2.984375 70.359375 0.015625 
Q 72.65625 3.03125 73.671875 7.171875 
Q 74.703125 11.328125 74.703125 14.59375 
Q 74.703125 20.359375 72.15625 26.21875 
Q 69.625 32.078125 64.703125 32.078125 
Q 59.71875 32.078125 58.109375 26.53125 
Q 56.5 21 56.5 14.5 
Q 56.5 8.15625 58.15625 2.578125 
Q 59.8125 -2.984375 64.703125 -2.984375 
z
" id="Cmr10-25"/>
      </defs>
      <g style="fill:#262626;" transform="translate(80.777187 345.401875)scale(0.12 -0.12)">
       <use xlink:href="#Cmr10-30"/>
       <use x="50" xlink:href="#Cmr10-25"/>
      </g>
     </g>
    </g>
    <g id="xtick_2">
     <g id="line2d_2"/>
     <g id="text_2">
      <!-- 25% -->
      <defs>
       <path d="M 4.984375 0 
L 4.984375 2.6875 
Q 4.984375 2.9375 5.171875 3.21875 
L 20.703125 20.40625 
Q 24.21875 24.21875 26.40625 26.796875 
Q 28.609375 29.390625 30.75 32.765625 
Q 32.90625 36.140625 34.15625 39.625 
Q 35.40625 43.109375 35.40625 47.015625 
Q 35.40625 51.125 33.890625 54.859375 
Q 32.375 58.59375 29.375 60.84375 
Q 26.375 63.09375 22.125 63.09375 
Q 17.78125 63.09375 14.3125 60.46875 
Q 10.84375 57.859375 9.421875 53.71875 
Q 9.8125 53.8125 10.5 53.8125 
Q 12.75 53.8125 14.328125 52.296875 
Q 15.921875 50.78125 15.921875 48.390625 
Q 15.921875 46.09375 14.328125 44.5 
Q 12.75 42.921875 10.5 42.921875 
Q 8.15625 42.921875 6.5625 44.546875 
Q 4.984375 46.1875 4.984375 48.390625 
Q 4.984375 52.15625 6.390625 55.4375 
Q 7.8125 58.734375 10.46875 61.296875 
Q 13.140625 63.875 16.484375 65.234375 
Q 19.828125 66.609375 23.578125 66.609375 
Q 29.296875 66.609375 34.21875 64.1875 
Q 39.15625 61.765625 42.03125 57.34375 
Q 44.921875 52.9375 44.921875 47.015625 
Q 44.921875 42.671875 43.015625 38.765625 
Q 41.109375 34.859375 38.125 31.65625 
Q 35.15625 28.46875 30.515625 24.40625 
Q 25.875 20.359375 24.421875 19 
L 13.09375 8.109375 
L 22.703125 8.109375 
Q 29.78125 8.109375 34.546875 8.21875 
Q 39.3125 8.34375 39.59375 8.59375 
Q 40.765625 9.859375 42 17.828125 
L 44.921875 17.828125 
L 42.09375 0 
z
" id="Cmr10-32"/>
       <path d="M 8.6875 11.375 
Q 9.71875 8.453125 11.84375 6.046875 
Q 13.96875 3.65625 16.875 2.3125 
Q 19.78125 0.984375 22.90625 0.984375 
Q 30.125 0.984375 32.859375 6.59375 
Q 35.59375 12.203125 35.59375 20.21875 
Q 35.59375 23.6875 35.46875 26.046875 
Q 35.359375 28.421875 34.8125 30.609375 
Q 33.890625 34.125 31.5625 36.765625 
Q 29.25 39.40625 25.875 39.40625 
Q 22.515625 39.40625 20.09375 38.375 
Q 17.671875 37.359375 16.15625 35.984375 
Q 14.65625 34.625 13.484375 33.109375 
Q 12.3125 31.59375 12.015625 31.5 
L 10.890625 31.5 
Q 10.640625 31.5 10.265625 31.8125 
Q 9.90625 32.125 9.90625 32.421875 
L 9.90625 65.828125 
Q 9.90625 66.0625 10.21875 66.328125 
Q 10.546875 66.609375 10.890625 66.609375 
L 11.1875 66.609375 
Q 17.921875 63.375 25.484375 63.375 
Q 32.90625 63.375 39.796875 66.609375 
L 40.09375 66.609375 
Q 40.4375 66.609375 40.71875 66.359375 
Q 41.015625 66.109375 41.015625 65.828125 
L 41.015625 64.890625 
Q 41.015625 64.40625 40.828125 64.40625 
Q 37.40625 59.859375 32.25 57.3125 
Q 27.09375 54.78125 21.578125 54.78125 
Q 17.578125 54.78125 13.375 55.90625 
L 13.375 37.015625 
Q 16.703125 39.703125 19.3125 40.84375 
Q 21.921875 42 25.984375 42 
Q 31.5 42 35.859375 38.8125 
Q 40.234375 35.640625 42.578125 30.53125 
Q 44.921875 25.4375 44.921875 20.125 
Q 44.921875 14.109375 41.96875 8.984375 
Q 39.015625 3.859375 33.9375 0.828125 
Q 28.859375 -2.203125 22.90625 -2.203125 
Q 17.96875 -2.203125 13.84375 0.328125 
Q 9.71875 2.875 7.34375 7.171875 
Q 4.984375 11.46875 4.984375 16.3125 
Q 4.984375 18.5625 6.4375 19.96875 
Q 7.90625 21.390625 10.109375 21.390625 
Q 12.3125 21.390625 13.796875 19.9375 
Q 15.28125 18.5 15.28125 16.3125 
Q 15.28125 14.15625 13.796875 12.671875 
Q 12.3125 11.1875 10.109375 11.1875 
Q 9.765625 11.1875 9.328125 11.25 
Q 8.890625 11.328125 8.6875 11.375 
z
" id="Cmr10-35"/>
      </defs>
      <g style="fill:#262626;" transform="translate(139.383437 345.401875)scale(0.12 -0.12)">
       <use xlink:href="#Cmr10-32"/>
       <use x="50" xlink:href="#Cmr10-35"/>
       <use x="100" xlink:href="#Cmr10-25"/>
      </g>
     </g>
    </g>
    <g id="xtick_3">
     <g id="line2d_3"/>
     <g id="text_3">
      <!-- 50% -->
      <g style="fill:#262626;" transform="translate(200.989688 345.401875)scale(0.12 -0.12)">
       <use xlink:href="#Cmr10-35"/>
       <use x="50" xlink:href="#Cmr10-30"/>
       <use x="100" xlink:href="#Cmr10-25"/>
      </g>
     </g>
    </g>
    <g id="xtick_4">
     <g id="line2d_4"/>
     <g id="text_4">
      <!-- 75% -->
      <defs>
       <path d="M 17.390625 2.59375 
Q 17.390625 8.15625 18.359375 13.46875 
Q 19.34375 18.796875 21.21875 24 
Q 23.09375 29.203125 25.75 34.203125 
Q 28.421875 39.203125 31.59375 43.609375 
L 40.71875 56.296875 
L 29.296875 56.296875 
Q 11.53125 56.296875 10.984375 55.8125 
Q 9.671875 54.203125 8.5 46.578125 
L 5.609375 46.578125 
L 8.890625 67.578125 
L 11.8125 67.578125 
L 11.8125 67.28125 
Q 11.8125 65.484375 17.921875 64.9375 
Q 24.03125 64.40625 29.890625 64.40625 
L 48.484375 64.40625 
L 48.484375 61.8125 
Q 48.484375 61.71875 48.453125 61.671875 
Q 48.4375 61.625 48.390625 61.53125 
L 34.625 42.1875 
Q 29.546875 34.671875 28.265625 25.484375 
Q 27 16.3125 27 2.59375 
Q 27 0.640625 25.578125 -0.78125 
Q 24.171875 -2.203125 22.21875 -2.203125 
Q 20.21875 -2.203125 18.796875 -0.78125 
Q 17.390625 0.640625 17.390625 2.59375 
z
" id="Cmr10-37"/>
      </defs>
      <g style="fill:#262626;" transform="translate(262.595937 345.401875)scale(0.12 -0.12)">
       <use xlink:href="#Cmr10-37"/>
       <use x="50" xlink:href="#Cmr10-35"/>
       <use x="100" xlink:href="#Cmr10-25"/>
      </g>
     </g>
    </g>
    <g id="xtick_5">
     <g id="line2d_5"/>
     <g id="text_5">
      <!-- 100% -->
      <defs>
       <path d="M 9.28125 0 
L 9.28125 3.515625 
Q 21.78125 3.515625 21.78125 6.6875 
L 21.78125 59.1875 
Q 16.609375 56.6875 8.6875 56.6875 
L 8.6875 60.203125 
Q 20.953125 60.203125 27.203125 66.609375 
L 28.609375 66.609375 
Q 28.953125 66.609375 29.265625 66.328125 
Q 29.59375 66.0625 29.59375 65.71875 
L 29.59375 6.6875 
Q 29.59375 3.515625 42.09375 3.515625 
L 42.09375 0 
z
" id="Cmr10-31"/>
      </defs>
      <g style="fill:#262626;" transform="translate(321.202187 345.401875)scale(0.12 -0.12)">
       <use xlink:href="#Cmr10-31"/>
       <use x="50" xlink:href="#Cmr10-30"/>
       <use x="100" xlink:href="#Cmr10-30"/>
       <use x="150" xlink:href="#Cmr10-25"/>
      </g>
     </g>
    </g>
   </g>
   <g id="matplotlib.axis_2">
    <g id="ytick_1">
     <g id="line2d_6"/>
     <g id="text_6">
      <!-- Antananarivo -->
      <defs>
       <path d="M 3.21875 0 
L 3.21875 3.515625 
Q 12.15625 3.515625 14.203125 9.421875 
L 35.203125 70.515625 
Q 35.5 71.578125 36.8125 71.578125 
L 38.09375 71.578125 
Q 39.40625 71.578125 39.703125 70.515625 
L 61.625 6.6875 
Q 62.546875 4.59375 65.15625 4.046875 
Q 67.78125 3.515625 71.6875 3.515625 
L 71.6875 0 
L 43.796875 0 
L 43.796875 3.515625 
Q 52.09375 3.515625 52.09375 6.203125 
L 52.09375 6.6875 
L 46.6875 22.3125 
L 22.40625 22.3125 
L 17.921875 9.421875 
Q 17.828125 9.078125 17.828125 8.40625 
Q 17.828125 5.90625 20.1875 4.703125 
Q 22.5625 3.515625 25.296875 3.515625 
L 25.296875 0 
z
M 23.578125 25.78125 
L 45.515625 25.78125 
L 34.515625 57.71875 
z
" id="Cmr10-41"/>
       <path d="M 2.984375 0 
L 2.984375 3.515625 
Q 6.390625 3.515625 8.59375 4.046875 
Q 10.796875 4.59375 10.796875 6.6875 
L 10.796875 33.984375 
Q 10.796875 36.671875 9.984375 37.859375 
Q 9.1875 39.0625 7.671875 39.328125 
Q 6.15625 39.59375 2.984375 39.59375 
L 2.984375 43.109375 
L 17.484375 44.1875 
L 17.484375 34.421875 
Q 19.484375 38.71875 23.40625 41.453125 
Q 27.34375 44.1875 31.984375 44.1875 
Q 38.921875 44.1875 42.40625 40.859375 
Q 45.90625 37.546875 45.90625 30.71875 
L 45.90625 6.6875 
Q 45.90625 4.59375 48.09375 4.046875 
Q 50.296875 3.515625 53.71875 3.515625 
L 53.71875 0 
L 30.8125 0 
L 30.8125 3.515625 
Q 34.234375 3.515625 36.421875 4.046875 
Q 38.625 4.59375 38.625 6.6875 
L 38.625 30.421875 
Q 38.625 35.296875 37.203125 38.453125 
Q 35.796875 41.609375 31.390625 41.609375 
Q 25.59375 41.609375 21.84375 36.96875 
Q 18.109375 32.328125 18.109375 26.421875 
L 18.109375 6.6875 
Q 18.109375 4.59375 20.3125 4.046875 
Q 22.515625 3.515625 25.875 3.515625 
L 25.875 0 
z
" id="Cmr10-6e"/>
       <path d="M 10.203125 12.015625 
L 10.203125 39.59375 
L 1.90625 39.59375 
L 1.90625 42.1875 
Q 8.453125 42.1875 11.515625 48.28125 
Q 14.59375 54.390625 14.59375 61.53125 
L 17.484375 61.53125 
L 17.484375 43.109375 
L 31.59375 43.109375 
L 31.59375 39.59375 
L 17.484375 39.59375 
L 17.484375 12.203125 
Q 17.484375 8.0625 18.875 4.9375 
Q 20.265625 1.8125 23.875 1.8125 
Q 27.296875 1.8125 28.8125 5.109375 
Q 30.328125 8.40625 30.328125 12.203125 
L 30.328125 18.109375 
L 33.203125 18.109375 
L 33.203125 12.015625 
Q 33.203125 8.890625 32.046875 5.828125 
Q 30.90625 2.78125 28.65625 0.828125 
Q 26.421875 -1.125 23.1875 -1.125 
Q 17.1875 -1.125 13.6875 2.46875 
Q 10.203125 6.0625 10.203125 12.015625 
z
" id="Cmr10-74"/>
       <path d="M 4 9.8125 
Q 4 15.765625 8.6875 19.5 
Q 13.375 23.25 19.9375 24.78125 
Q 26.515625 26.3125 32.421875 26.3125 
L 32.421875 30.421875 
Q 32.421875 33.296875 31.15625 36 
Q 29.890625 38.71875 27.484375 40.453125 
Q 25.09375 42.1875 22.21875 42.1875 
Q 15.578125 42.1875 12.109375 39.203125 
Q 14.015625 39.203125 15.25 37.765625 
Q 16.5 36.328125 16.5 34.421875 
Q 16.5 32.421875 15.078125 31 
Q 13.671875 29.59375 11.71875 29.59375 
Q 9.71875 29.59375 8.296875 31 
Q 6.890625 32.421875 6.890625 34.421875 
Q 6.890625 39.703125 11.671875 42.265625 
Q 16.453125 44.828125 22.21875 44.828125 
Q 26.265625 44.828125 30.359375 43.09375 
Q 34.46875 41.359375 37.078125 38.125 
Q 39.703125 34.90625 39.703125 30.609375 
L 39.703125 8.109375 
Q 39.703125 6.15625 40.53125 4.515625 
Q 41.359375 2.875 43.109375 2.875 
Q 44.78125 2.875 45.578125 4.53125 
Q 46.390625 6.203125 46.390625 8.109375 
L 46.390625 14.5 
L 49.3125 14.5 
L 49.3125 8.109375 
Q 49.3125 5.859375 48.140625 3.828125 
Q 46.96875 1.8125 44.984375 0.609375 
Q 43.015625 -0.59375 40.71875 -0.59375 
Q 37.796875 -0.59375 35.671875 1.671875 
Q 33.546875 3.953125 33.296875 7.078125 
Q 31.453125 3.328125 27.828125 1.09375 
Q 24.21875 -1.125 20.125 -1.125 
Q 16.3125 -1.125 12.625 0 
Q 8.9375 1.125 6.46875 3.53125 
Q 4 5.953125 4 9.8125 
z
M 12.109375 9.8125 
Q 12.109375 6.296875 14.6875 3.90625 
Q 17.28125 1.515625 20.796875 1.515625 
Q 24.03125 1.515625 26.65625 3.125 
Q 29.296875 4.734375 30.859375 7.515625 
Q 32.421875 10.296875 32.421875 13.375 
L 32.421875 23.78125 
Q 27.875 23.78125 23.109375 22.28125 
Q 18.359375 20.796875 15.234375 17.625 
Q 12.109375 14.453125 12.109375 9.8125 
z
" id="Cmr10-61"/>
       <path d="M 2.59375 0 
L 2.59375 3.515625 
Q 6 3.515625 8.203125 4.046875 
Q 10.40625 4.59375 10.40625 6.6875 
L 10.40625 33.984375 
Q 10.40625 36.671875 9.59375 37.859375 
Q 8.796875 39.0625 7.28125 39.328125 
Q 5.765625 39.59375 2.59375 39.59375 
L 2.59375 43.109375 
L 16.890625 44.1875 
L 16.890625 34.421875 
Q 18.5 38.765625 21.484375 41.46875 
Q 24.46875 44.1875 28.71875 44.1875 
Q 31.6875 44.1875 34.03125 42.421875 
Q 36.375 40.671875 36.375 37.796875 
Q 36.375 35.984375 35.078125 34.640625 
Q 33.796875 33.296875 31.890625 33.296875 
Q 30.03125 33.296875 28.703125 34.609375 
Q 27.390625 35.9375 27.390625 37.796875 
Q 27.390625 40.484375 29.296875 41.609375 
L 28.71875 41.609375 
Q 24.65625 41.609375 22.09375 38.671875 
Q 19.53125 35.75 18.453125 31.390625 
Q 17.390625 27.046875 17.390625 23.09375 
L 17.390625 6.6875 
Q 17.390625 3.515625 27.09375 3.515625 
L 27.09375 0 
z
" id="Cmr10-72"/>
       <path d="M 3.078125 0 
L 3.078125 3.515625 
Q 6.5 3.515625 8.6875 4.046875 
Q 10.890625 4.59375 10.890625 6.6875 
L 10.890625 33.984375 
Q 10.890625 37.84375 9.390625 38.71875 
Q 7.90625 39.59375 3.515625 39.59375 
L 3.515625 43.109375 
L 17.921875 44.1875 
L 17.921875 6.6875 
Q 17.921875 4.59375 19.828125 4.046875 
Q 21.734375 3.515625 24.90625 3.515625 
L 24.90625 0 
z
M 7.328125 61.375 
Q 7.328125 63.578125 8.984375 65.234375 
Q 10.640625 66.890625 12.796875 66.890625 
Q 14.203125 66.890625 15.515625 66.15625 
Q 16.84375 65.4375 17.578125 64.109375 
Q 18.3125 62.796875 18.3125 61.375 
Q 18.3125 59.234375 16.640625 57.5625 
Q 14.984375 55.90625 12.796875 55.90625 
Q 10.640625 55.90625 8.984375 57.5625 
Q 7.328125 59.234375 7.328125 61.375 
z
" id="Cmr10-69"/>
       <path d="M 24.421875 0 
L 9.8125 36.71875 
Q 8.890625 38.578125 6.953125 39.078125 
Q 5.03125 39.59375 1.90625 39.59375 
L 1.90625 43.109375 
L 22.90625 43.109375 
L 22.90625 39.59375 
Q 17.28125 39.59375 17.28125 37.203125 
Q 17.28125 36.8125 17.390625 36.625 
L 28.609375 8.40625 
L 38.71875 33.890625 
Q 39.015625 34.671875 39.015625 35.5 
Q 39.015625 37.40625 37.578125 38.5 
Q 36.140625 39.59375 34.1875 39.59375 
L 34.1875 43.109375 
L 50.78125 43.109375 
L 50.78125 39.59375 
Q 47.703125 39.59375 45.375 38.171875 
Q 43.0625 36.765625 41.796875 33.984375 
L 28.328125 0 
Q 27.9375 -1.125 26.703125 -1.125 
L 25.984375 -1.125 
Q 24.75 -1.125 24.421875 0 
z
" id="Cmr10-76"/>
       <path d="M 25 -1.125 
Q 19 -1.125 13.859375 1.921875 
Q 8.734375 4.984375 5.75 10.109375 
Q 2.78125 15.234375 2.78125 21.296875 
Q 2.78125 25.875 4.421875 30.125 
Q 6.0625 34.375 9.109375 37.71875 
Q 12.15625 41.0625 16.203125 42.9375 
Q 20.265625 44.828125 25 44.828125 
Q 31.15625 44.828125 36.203125 41.578125 
Q 41.265625 38.328125 44.1875 32.875 
Q 47.125 27.4375 47.125 21.296875 
Q 47.125 15.28125 44.140625 10.125 
Q 41.15625 4.984375 36.046875 1.921875 
Q 30.953125 -1.125 25 -1.125 
z
M 25 1.8125 
Q 33.015625 1.8125 35.6875 7.609375 
Q 38.375 13.421875 38.375 22.40625 
Q 38.375 27.4375 37.84375 30.734375 
Q 37.3125 34.03125 35.5 36.71875 
Q 34.375 38.375 32.640625 39.625 
Q 30.90625 40.875 28.96875 41.53125 
Q 27.046875 42.1875 25 42.1875 
Q 21.875 42.1875 19.0625 40.765625 
Q 16.265625 39.359375 14.40625 36.71875 
Q 12.546875 33.890625 12.03125 30.484375 
Q 11.53125 27.09375 11.53125 22.40625 
Q 11.53125 16.796875 12.5 12.328125 
Q 13.484375 7.859375 16.4375 4.828125 
Q 19.390625 1.8125 25 1.8125 
z
" id="Cmr10-6f"/>
      </defs>
      <g style="fill:#262626;" transform="translate(11.19375 325.590344)scale(0.12 -0.12)">
       <use xlink:href="#Cmr10-41"/>
       <use x="75" xlink:href="#Cmr10-6e"/>
       <use x="130.517578" xlink:href="#Cmr10-74"/>
       <use x="169.335938" xlink:href="#Cmr10-61"/>
       <use x="219.335938" xlink:href="#Cmr10-6e"/>
       <use x="274.853516" xlink:href="#Cmr10-61"/>
       <use x="324.853516" xlink:href="#Cmr10-6e"/>
       <use x="380.371094" xlink:href="#Cmr10-61"/>
       <use x="430.371094" xlink:href="#Cmr10-72"/>
       <use x="469.482422" xlink:href="#Cmr10-69"/>
       <use x="497.167969" xlink:href="#Cmr10-76"/>
       <use x="549.853516" xlink:href="#Cmr10-6f"/>
      </g>
     </g>
    </g>
    <g id="ytick_2">
     <g id="line2d_7"/>
     <g id="text_7">
      <!-- Bukavu -->
      <defs>
       <path d="M 3.421875 0 
L 3.421875 3.515625 
Q 13.71875 3.515625 13.71875 6.6875 
L 13.71875 61.625 
Q 13.71875 64.796875 3.421875 64.796875 
L 3.421875 68.3125 
L 40.1875 68.3125 
Q 45.265625 68.3125 50.4375 66.328125 
Q 55.609375 64.359375 59 60.46875 
Q 62.40625 56.59375 62.40625 51.3125 
Q 62.40625 45.21875 57.390625 41.09375 
Q 52.390625 36.96875 45.703125 35.6875 
Q 50.046875 35.6875 54.640625 33.296875 
Q 59.234375 30.90625 62.15625 26.90625 
Q 65.09375 22.90625 65.09375 18.40625 
Q 65.09375 12.9375 61.84375 8.734375 
Q 58.59375 4.546875 53.421875 2.265625 
Q 48.25 0 43.015625 0 
z
M 22.40625 6.6875 
Q 22.40625 4.546875 23.625 4.03125 
Q 24.859375 3.515625 27.484375 3.515625 
L 40.1875 3.515625 
Q 44.09375 3.515625 47.4375 5.5625 
Q 50.78125 7.625 52.734375 11.0625 
Q 54.6875 14.5 54.6875 18.40625 
Q 54.6875 22.21875 53.078125 25.859375 
Q 51.46875 29.5 48.453125 31.84375 
Q 45.453125 34.1875 41.609375 34.1875 
L 22.40625 34.1875 
z
M 22.40625 36.8125 
L 37.40625 36.8125 
Q 40.4375 36.8125 43.09375 37.90625 
Q 45.75 39.015625 47.875 41.09375 
Q 50 43.171875 51.140625 45.78125 
Q 52.296875 48.390625 52.296875 51.3125 
Q 52.296875 53.90625 51.4375 56.296875 
Q 50.59375 58.6875 48.921875 60.640625 
Q 47.265625 62.59375 45.015625 63.6875 
Q 42.78125 64.796875 40.1875 64.796875 
L 27.484375 64.796875 
Q 25.6875 64.796875 24.6875 64.640625 
Q 23.6875 64.5 23.046875 63.796875 
Q 22.40625 63.09375 22.40625 61.625 
z
" id="Cmr10-42"/>
       <path d="M 10.796875 11.921875 
L 10.796875 33.984375 
Q 10.796875 36.671875 9.984375 37.859375 
Q 9.1875 39.0625 7.671875 39.328125 
Q 6.15625 39.59375 2.984375 39.59375 
L 2.984375 43.109375 
L 18.109375 44.1875 
L 18.109375 11.921875 
Q 18.109375 8.015625 18.671875 5.828125 
Q 19.234375 3.65625 21.0625 2.578125 
Q 22.90625 1.515625 26.90625 1.515625 
Q 32.28125 1.515625 35.453125 6 
Q 38.625 10.5 38.625 16.21875 
L 38.625 33.984375 
Q 38.625 36.671875 37.796875 37.859375 
Q 36.96875 39.0625 35.46875 39.328125 
Q 33.984375 39.59375 30.8125 39.59375 
L 30.8125 43.109375 
L 45.90625 44.1875 
L 45.90625 9.078125 
Q 45.90625 6.453125 46.703125 5.25 
Q 47.515625 4.046875 49.015625 3.78125 
Q 50.53125 3.515625 53.71875 3.515625 
L 53.71875 0 
L 38.921875 -1.125 
L 38.921875 7.328125 
Q 37.0625 3.5625 33.734375 1.21875 
Q 30.421875 -1.125 26.421875 -1.125 
Q 19.234375 -1.125 15.015625 1.921875 
Q 10.796875 4.984375 10.796875 11.921875 
z
" id="Cmr10-75"/>
       <path d="M 2.59375 0 
L 2.59375 3.515625 
Q 6 3.515625 8.203125 4.046875 
Q 10.40625 4.59375 10.40625 6.6875 
L 10.40625 59.1875 
Q 10.40625 61.859375 9.59375 63.0625 
Q 8.796875 64.265625 7.28125 64.53125 
Q 5.765625 64.796875 2.59375 64.796875 
L 2.59375 68.3125 
L 17.390625 69.390625 
L 17.390625 21.921875 
L 30.8125 33.6875 
Q 32.8125 35.59375 32.8125 37.203125 
Q 32.8125 38.375 31.984375 38.984375 
Q 31.15625 39.59375 29.984375 39.59375 
L 29.984375 43.109375 
L 48.78125 43.109375 
L 48.78125 39.59375 
Q 42 39.59375 35.203125 33.6875 
L 28.078125 27.484375 
L 40.828125 9.421875 
Q 43.453125 5.671875 45.234375 4.59375 
Q 47.015625 3.515625 51.125 3.515625 
L 51.125 0 
L 31.203125 0 
L 31.203125 3.515625 
Q 34.625 3.515625 34.625 5.609375 
Q 34.625 7.125 32.8125 9.421875 
L 23.1875 23.09375 
L 17.09375 17.828125 
L 17.09375 6.6875 
Q 17.09375 4.59375 19.3125 4.046875 
Q 21.53125 3.515625 24.90625 3.515625 
L 24.90625 0 
z
" id="Cmr10-6b"/>
      </defs>
      <g style="fill:#262626;" transform="translate(42.710625 299.683179)scale(0.12 -0.12)">
       <use xlink:href="#Cmr10-42"/>
       <use x="70.800781" xlink:href="#Cmr10-75"/>
       <use x="126.318359" xlink:href="#Cmr10-6b"/>
       <use x="179.003906" xlink:href="#Cmr10-61"/>
       <use x="229.003906" xlink:href="#Cmr10-76"/>
       <use x="281.689453" xlink:href="#Cmr10-75"/>
      </g>
     </g>
    </g>
    <g id="ytick_3">
     <g id="line2d_8"/>
     <g id="text_8">
      <!-- Chimoio -->
      <defs>
       <path d="M 22.796875 10.6875 
Q 26.21875 6.34375 31.34375 3.828125 
Q 36.46875 1.3125 42 1.3125 
Q 46.625 1.3125 50.578125 3.140625 
Q 54.546875 4.984375 57.5 8.25 
Q 60.453125 11.53125 62.03125 15.671875 
Q 63.625 19.828125 63.625 24.421875 
Q 63.625 25.203125 64.5 25.203125 
L 65.71875 25.203125 
Q 66.5 25.203125 66.5 24.21875 
Q 66.5 19 64.5 14.140625 
Q 62.5 9.28125 58.828125 5.59375 
Q 55.171875 1.90625 50.40625 -0.140625 
Q 45.65625 -2.203125 40.484375 -2.203125 
Q 33.296875 -2.203125 26.875 0.703125 
Q 20.453125 3.609375 15.6875 8.65625 
Q 10.9375 13.71875 8.265625 20.359375 
Q 5.609375 27 5.609375 34.1875 
Q 5.609375 41.359375 8.265625 48 
Q 10.9375 54.640625 15.6875 59.71875 
Q 20.453125 64.796875 26.875 67.65625 
Q 33.296875 70.515625 40.484375 70.515625 
Q 45.609375 70.515625 50.296875 68.28125 
Q 54.984375 66.0625 58.5 62.015625 
L 64.3125 70.21875 
Q 64.890625 70.515625 64.984375 70.515625 
L 65.71875 70.515625 
Q 66.015625 70.515625 66.25 70.265625 
Q 66.5 70.015625 66.5 69.671875 
L 66.5 42.671875 
Q 66.5 41.796875 65.71875 41.796875 
L 63.921875 41.796875 
Q 62.984375 41.796875 62.984375 42.671875 
Q 62.984375 45.5625 61.828125 49.125 
Q 60.6875 52.6875 58.90625 55.875 
Q 57.125 59.078125 54.78125 61.53125 
Q 49.171875 67 41.890625 67 
Q 36.375 67 31.3125 64.5 
Q 26.265625 62.015625 22.796875 57.625 
Q 19.140625 52.9375 17.71875 46.953125 
Q 16.3125 40.96875 16.3125 34.1875 
Q 16.3125 27.390625 17.71875 21.375 
Q 19.140625 15.375 22.796875 10.6875 
z
" id="Cmr10-43"/>
       <path d="M 2.984375 0 
L 2.984375 3.515625 
Q 6.390625 3.515625 8.59375 4.046875 
Q 10.796875 4.59375 10.796875 6.6875 
L 10.796875 59.1875 
Q 10.796875 61.859375 9.984375 63.0625 
Q 9.1875 64.265625 7.671875 64.53125 
Q 6.15625 64.796875 2.984375 64.796875 
L 2.984375 68.3125 
L 17.828125 69.390625 
L 17.828125 35.015625 
Q 19.921875 39.15625 23.671875 41.671875 
Q 27.4375 44.1875 31.984375 44.1875 
Q 38.921875 44.1875 42.40625 40.859375 
Q 45.90625 37.546875 45.90625 30.71875 
L 45.90625 6.6875 
Q 45.90625 4.59375 48.09375 4.046875 
Q 50.296875 3.515625 53.71875 3.515625 
L 53.71875 0 
L 30.8125 0 
L 30.8125 3.515625 
Q 34.234375 3.515625 36.421875 4.046875 
Q 38.625 4.59375 38.625 6.6875 
L 38.625 30.421875 
Q 38.625 35.296875 37.203125 38.453125 
Q 35.796875 41.609375 31.390625 41.609375 
Q 25.59375 41.609375 21.84375 36.96875 
Q 18.109375 32.328125 18.109375 26.421875 
L 18.109375 6.6875 
Q 18.109375 4.59375 20.3125 4.046875 
Q 22.515625 3.515625 25.875 3.515625 
L 25.875 0 
z
" id="Cmr10-68"/>
       <path d="M 2.984375 0 
L 2.984375 3.515625 
Q 6.390625 3.515625 8.59375 4.046875 
Q 10.796875 4.59375 10.796875 6.6875 
L 10.796875 33.984375 
Q 10.796875 36.671875 9.984375 37.859375 
Q 9.1875 39.0625 7.671875 39.328125 
Q 6.15625 39.59375 2.984375 39.59375 
L 2.984375 43.109375 
L 17.484375 44.1875 
L 17.484375 34.421875 
Q 19.484375 38.71875 23.40625 41.453125 
Q 27.34375 44.1875 31.984375 44.1875 
Q 43.5 44.1875 45.515625 34.8125 
Q 47.515625 39.015625 51.359375 41.59375 
Q 55.21875 44.1875 59.8125 44.1875 
Q 64.359375 44.1875 67.453125 42.71875 
Q 70.5625 41.265625 72.125 38.25 
Q 73.6875 35.25 73.6875 30.71875 
L 73.6875 6.6875 
Q 73.6875 4.59375 75.90625 4.046875 
Q 78.125 3.515625 81.5 3.515625 
L 81.5 0 
L 58.59375 0 
L 58.59375 3.515625 
Q 62.015625 3.515625 64.203125 4.046875 
Q 66.40625 4.59375 66.40625 6.6875 
L 66.40625 30.421875 
Q 66.40625 35.453125 64.984375 38.53125 
Q 63.578125 41.609375 59.1875 41.609375 
Q 53.421875 41.609375 49.65625 36.96875 
Q 45.90625 32.328125 45.90625 26.421875 
L 45.90625 6.6875 
Q 45.90625 4.59375 48.09375 4.046875 
Q 50.296875 3.515625 53.71875 3.515625 
L 53.71875 0 
L 30.8125 0 
L 30.8125 3.515625 
Q 34.234375 3.515625 36.421875 4.046875 
Q 38.625 4.59375 38.625 6.6875 
L 38.625 30.421875 
Q 38.625 35.296875 37.203125 38.453125 
Q 35.796875 41.609375 31.390625 41.609375 
Q 25.59375 41.609375 21.84375 36.96875 
Q 18.109375 32.328125 18.109375 26.421875 
L 18.109375 6.6875 
Q 18.109375 4.59375 20.3125 4.046875 
Q 22.515625 3.515625 25.875 3.515625 
L 25.875 0 
z
" id="Cmr10-6d"/>
      </defs>
      <g style="fill:#262626;" transform="translate(39.20625 273.776015)scale(0.12 -0.12)">
       <use xlink:href="#Cmr10-43"/>
       <use x="72.216797" xlink:href="#Cmr10-68"/>
       <use x="127.734375" xlink:href="#Cmr10-69"/>
       <use x="155.419922" xlink:href="#Cmr10-6d"/>
       <use x="238.720703" xlink:href="#Cmr10-6f"/>
       <use x="288.720703" xlink:href="#Cmr10-69"/>
       <use x="316.40625" xlink:href="#Cmr10-6f"/>
      </g>
     </g>
    </g>
    <g id="ytick_4">
     <g id="line2d_9"/>
     <g id="text_9">
      <!-- Dakar -->
      <defs>
       <path d="M 3.328125 0 
L 3.328125 3.515625 
Q 13.625 3.515625 13.625 6.6875 
L 13.625 61.625 
Q 13.625 64.796875 3.328125 64.796875 
L 3.328125 68.3125 
L 40.1875 68.3125 
Q 47.015625 68.3125 52.671875 65.359375 
Q 58.34375 62.40625 62.34375 57.46875 
Q 66.359375 52.546875 68.53125 46.296875 
Q 70.703125 40.046875 70.703125 33.5 
Q 70.703125 27.15625 68.5 21.171875 
Q 66.3125 15.1875 62.1875 10.375 
Q 58.0625 5.5625 52.421875 2.78125 
Q 46.78125 0 40.1875 0 
z
M 22.609375 6.6875 
Q 22.609375 4.546875 23.828125 4.03125 
Q 25.046875 3.515625 27.6875 3.515625 
L 37.59375 3.515625 
Q 42.71875 3.515625 47.328125 5.734375 
Q 51.953125 7.953125 54.984375 11.921875 
Q 58.15625 16.109375 59.21875 21.3125 
Q 60.296875 26.515625 60.296875 33.5 
Q 60.296875 40.765625 59.21875 46.234375 
Q 58.15625 51.703125 54.984375 56 
Q 52 60.25 47.40625 62.515625 
Q 42.828125 64.796875 37.59375 64.796875 
L 27.6875 64.796875 
Q 25.875 64.796875 24.875 64.640625 
Q 23.875 64.5 23.234375 63.796875 
Q 22.609375 63.09375 22.609375 61.625 
z
" id="Cmr10-44"/>
      </defs>
      <g style="fill:#262626;" transform="translate(51.001875 247.86885)scale(0.12 -0.12)">
       <use xlink:href="#Cmr10-44"/>
       <use x="76.318359" xlink:href="#Cmr10-61"/>
       <use x="126.318359" xlink:href="#Cmr10-6b"/>
       <use x="179.003906" xlink:href="#Cmr10-61"/>
       <use x="229.003906" xlink:href="#Cmr10-72"/>
      </g>
     </g>
    </g>
    <g id="ytick_5">
     <g id="line2d_10"/>
     <g id="text_10">
      <!-- Gao -->
      <defs>
       <path d="M 23 10.6875 
Q 26.609375 6.296875 31.8125 3.796875 
Q 37.015625 1.3125 42.671875 1.3125 
Q 48.25 1.3125 52.78125 4.140625 
Q 57.328125 6.984375 57.328125 12.203125 
L 57.328125 20.609375 
Q 57.328125 23.78125 44.828125 23.78125 
L 44.828125 27.296875 
L 73.484375 27.296875 
L 73.484375 23.78125 
Q 70.3125 23.78125 68.453125 23.234375 
Q 66.609375 22.703125 66.609375 20.609375 
L 66.609375 0.875 
Q 66.609375 0.53125 66.328125 0.265625 
Q 66.0625 0 65.71875 0 
Q 64.796875 0 62.625 2.1875 
Q 60.453125 4.390625 59.1875 6.109375 
Q 56.734375 1.90625 51.515625 -0.140625 
Q 46.296875 -2.203125 40.578125 -2.203125 
Q 30.859375 -2.203125 22.875 2.796875 
Q 14.890625 7.8125 10.25 16.1875 
Q 5.609375 24.5625 5.609375 34.1875 
Q 5.609375 41.265625 8.296875 47.953125 
Q 10.984375 54.640625 15.796875 59.71875 
Q 20.609375 64.796875 27 67.65625 
Q 33.40625 70.515625 40.578125 70.515625 
Q 45.75 70.515625 50.359375 68.28125 
Q 54.984375 66.0625 58.59375 62.015625 
L 64.40625 70.21875 
Q 64.984375 70.515625 65.09375 70.515625 
L 65.828125 70.515625 
Q 66.109375 70.515625 66.359375 70.265625 
Q 66.609375 70.015625 66.609375 69.671875 
L 66.609375 42.671875 
Q 66.609375 41.796875 65.828125 41.796875 
L 64.015625 41.796875 
Q 63.09375 41.796875 63.09375 42.671875 
Q 63.09375 45.5625 61.9375 49.125 
Q 60.796875 52.6875 59.015625 55.875 
Q 57.234375 59.078125 54.890625 61.53125 
Q 49.265625 67 42 67 
Q 36.421875 67 31.34375 64.5 
Q 26.265625 62.015625 22.796875 57.625 
Q 19.140625 52.9375 17.71875 46.953125 
Q 16.3125 40.96875 16.3125 34.1875 
Q 16.3125 18.84375 23 10.6875 
z
" id="Cmr10-47"/>
      </defs>
      <g style="fill:#262626;" transform="translate(61.764375 221.961685)scale(0.12 -0.12)">
       <use xlink:href="#Cmr10-47"/>
       <use x="78.417969" xlink:href="#Cmr10-61"/>
       <use x="128.417969" xlink:href="#Cmr10-6f"/>
      </g>
     </g>
    </g>
    <g id="ytick_6">
     <g id="line2d_11"/>
     <g id="text_11">
      <!-- Johannesburg -->
      <defs>
       <path d="M 9.078125 5.609375 
Q 10.890625 3.078125 13.765625 1.734375 
Q 16.65625 0.390625 19.921875 0.390625 
Q 23.140625 0.390625 25.359375 2.609375 
Q 27.59375 4.828125 28.6875 8.125 
Q 29.78125 11.421875 29.78125 14.5 
L 29.78125 61.625 
Q 29.78125 64.796875 16.40625 64.796875 
L 16.40625 68.3125 
L 46.484375 68.3125 
L 46.484375 64.796875 
Q 43.109375 64.796875 40.953125 64.25 
Q 38.8125 63.71875 38.8125 61.625 
L 38.8125 14.109375 
Q 38.8125 9.328125 36.046875 5.609375 
Q 33.296875 1.90625 28.921875 -0.140625 
Q 24.5625 -2.203125 19.921875 -2.203125 
Q 15.875 -2.203125 12.15625 -0.5625 
Q 8.453125 1.078125 6.078125 4.171875 
Q 3.71875 7.28125 3.71875 11.375 
Q 3.71875 13.875 5.375 15.53125 
Q 7.03125 17.1875 9.515625 17.1875 
Q 11.140625 17.1875 12.453125 16.421875 
Q 13.765625 15.671875 14.515625 14.296875 
Q 15.28125 12.9375 15.28125 11.375 
Q 15.28125 8.9375 13.625 7.265625 
Q 11.96875 5.609375 9.515625 5.609375 
z
" id="Cmr10-4a"/>
       <path d="M 24.90625 -1.125 
Q 18.796875 -1.125 13.6875 2.078125 
Q 8.59375 5.28125 5.6875 10.625 
Q 2.78125 15.96875 2.78125 21.921875 
Q 2.78125 27.78125 5.4375 33.046875 
Q 8.109375 38.328125 12.859375 41.578125 
Q 17.625 44.828125 23.484375 44.828125 
Q 28.078125 44.828125 31.46875 43.28125 
Q 34.859375 41.75 37.0625 39.015625 
Q 39.265625 36.28125 40.375 32.5625 
Q 41.5 28.859375 41.5 24.421875 
Q 41.5 23.09375 40.484375 23.09375 
L 11.53125 23.09375 
L 11.53125 22.015625 
Q 11.53125 13.71875 14.875 7.765625 
Q 18.21875 1.8125 25.78125 1.8125 
Q 28.859375 1.8125 31.46875 3.171875 
Q 34.078125 4.546875 36 6.984375 
Q 37.9375 9.421875 38.625 12.203125 
Q 38.71875 12.546875 38.984375 12.8125 
Q 39.265625 13.09375 39.59375 13.09375 
L 40.484375 13.09375 
Q 41.5 13.09375 41.5 11.8125 
Q 40.09375 6.15625 35.40625 2.515625 
Q 30.71875 -1.125 24.90625 -1.125 
z
M 11.625 25.59375 
L 34.421875 25.59375 
Q 34.421875 29.34375 33.375 33.203125 
Q 32.328125 37.0625 29.875 39.625 
Q 27.4375 42.1875 23.484375 42.1875 
Q 17.828125 42.1875 14.71875 36.890625 
Q 11.625 31.59375 11.625 25.59375 
z
" id="Cmr10-65"/>
       <path d="M 3.328125 -0.296875 
L 3.328125 16.015625 
Q 3.328125 16.796875 4.203125 16.796875 
L 5.421875 16.796875 
Q 6 16.796875 6.203125 16.015625 
Q 8.984375 1.515625 19.671875 1.515625 
Q 24.421875 1.515625 27.609375 3.65625 
Q 30.8125 5.8125 30.8125 10.296875 
Q 30.8125 13.53125 28.3125 15.796875 
Q 25.828125 18.0625 22.40625 18.890625 
L 15.71875 20.21875 
Q 12.359375 20.953125 9.59375 22.453125 
Q 6.84375 23.96875 5.078125 26.484375 
Q 3.328125 29 3.328125 32.328125 
Q 3.328125 36.71875 5.640625 39.515625 
Q 7.953125 42.328125 11.65625 43.578125 
Q 15.375 44.828125 19.671875 44.828125 
Q 24.8125 44.828125 28.609375 42.09375 
L 31.5 44.578125 
Q 31.5 44.828125 31.984375 44.828125 
L 32.71875 44.828125 
Q 33.015625 44.828125 33.25 44.546875 
Q 33.5 44.28125 33.5 44 
L 33.5 30.90625 
Q 33.5 29.984375 32.71875 29.984375 
L 31.5 29.984375 
Q 30.609375 29.984375 30.609375 30.90625 
Q 30.609375 36.140625 27.703125 39.3125 
Q 24.8125 42.484375 19.578125 42.484375 
Q 15.09375 42.484375 11.796875 40.8125 
Q 8.5 39.15625 8.5 35.109375 
Q 8.5 32.328125 10.859375 30.546875 
Q 13.234375 28.765625 16.40625 27.984375 
L 23.1875 26.703125 
Q 26.609375 25.921875 29.5625 24.0625 
Q 32.515625 22.21875 34.25 19.375 
Q 35.984375 16.546875 35.984375 12.984375 
Q 35.984375 9.375 34.734375 6.703125 
Q 33.5 4.046875 31.265625 2.28125 
Q 29.046875 0.53125 26.015625 -0.296875 
Q 23 -1.125 19.671875 -1.125 
Q 13.421875 -1.125 8.984375 3.078125 
L 5.328125 -0.875 
Q 5.328125 -1.125 4.78125 -1.125 
L 4.203125 -1.125 
Q 3.328125 -1.125 3.328125 -0.296875 
z
" id="Cmr10-73"/>
       <path d="M 10.40625 0 
L 10.40625 59.1875 
Q 10.40625 61.859375 9.59375 63.0625 
Q 8.796875 64.265625 7.28125 64.53125 
Q 5.765625 64.796875 2.59375 64.796875 
L 2.59375 68.3125 
L 17.390625 69.390625 
L 17.390625 38.09375 
Q 19.046875 39.9375 21.265625 41.328125 
Q 23.484375 42.71875 26.015625 43.453125 
Q 28.5625 44.1875 31.203125 44.1875 
Q 35.6875 44.1875 39.515625 42.375 
Q 43.359375 40.578125 46.1875 37.40625 
Q 49.03125 34.234375 50.609375 30.109375 
Q 52.203125 25.984375 52.203125 21.578125 
Q 52.203125 15.53125 49.25 10.296875 
Q 46.296875 5.078125 41.1875 1.96875 
Q 36.078125 -1.125 29.984375 -1.125 
Q 26.171875 -1.125 22.609375 0.828125 
Q 19.046875 2.78125 16.703125 6 
L 13.28125 0 
z
M 17.671875 9.8125 
Q 19.34375 6.15625 22.46875 3.828125 
Q 25.59375 1.515625 29.390625 1.515625 
Q 34.578125 1.515625 37.765625 4.484375 
Q 40.96875 7.46875 42.234375 12 
Q 43.5 16.546875 43.5 21.578125 
Q 43.5 30.03125 41.3125 34.421875 
Q 40.328125 36.375 38.640625 38.03125 
Q 36.96875 39.703125 34.890625 40.65625 
Q 32.8125 41.609375 30.515625 41.609375 
Q 26.515625 41.609375 23.09375 39.484375 
Q 19.671875 37.359375 17.671875 33.796875 
z
" id="Cmr10-62"/>
       <path d="M 2.78125 -7.8125 
Q 2.78125 -4.25 5.359375 -1.578125 
Q 7.953125 1.078125 11.53125 2.203125 
Q 9.515625 3.71875 8.46875 6 
Q 7.421875 8.296875 7.421875 10.890625 
Q 7.421875 15.578125 10.40625 19.1875 
Q 5.8125 23.6875 5.8125 29.5 
Q 5.8125 32.625 7.15625 35.359375 
Q 8.5 38.09375 10.890625 40.09375 
Q 13.28125 42.09375 16.203125 43.140625 
Q 19.140625 44.1875 22.21875 44.1875 
Q 28.171875 44.1875 32.90625 40.71875 
Q 34.96875 42.921875 37.765625 44.109375 
Q 40.578125 45.3125 43.609375 45.3125 
Q 45.75 45.3125 47.109375 43.765625 
Q 48.484375 42.234375 48.484375 40.09375 
Q 48.484375 38.875 47.546875 37.9375 
Q 46.625 37.015625 45.40625 37.015625 
Q 44.140625 37.015625 43.203125 37.9375 
Q 42.28125 38.875 42.28125 40.09375 
Q 42.28125 41.9375 43.5 42.671875 
Q 38.328125 42.671875 34.625 39.109375 
Q 36.421875 37.3125 37.515625 34.6875 
Q 38.625 32.078125 38.625 29.5 
Q 38.625 25.25 36.28125 21.84375 
Q 33.9375 18.453125 30.09375 16.578125 
Q 26.265625 14.703125 22.21875 14.703125 
Q 16.75 14.703125 12.203125 17.671875 
Q 10.796875 15.71875 10.796875 13.28125 
Q 10.796875 10.640625 12.53125 8.65625 
Q 14.265625 6.6875 16.890625 6.6875 
L 25.09375 6.6875 
Q 31.0625 6.6875 35.84375 5.609375 
Q 40.625 4.546875 43.875 1.3125 
Q 47.125 -1.90625 47.125 -7.8125 
Q 47.125 -12.203125 43.40625 -15.109375 
Q 39.703125 -18.015625 34.546875 -19.3125 
Q 29.390625 -20.609375 25 -20.609375 
Q 20.5625 -20.609375 15.375 -19.3125 
Q 10.203125 -18.015625 6.484375 -15.109375 
Q 2.78125 -12.203125 2.78125 -7.8125 
z
M 8.40625 -7.8125 
Q 8.40625 -11.1875 11.140625 -13.453125 
Q 13.875 -15.71875 17.71875 -16.8125 
Q 21.578125 -17.921875 25 -17.921875 
Q 28.375 -17.921875 32.21875 -16.8125 
Q 36.078125 -15.71875 38.78125 -13.453125 
Q 41.5 -11.1875 41.5 -7.8125 
Q 41.5 -2.59375 36.71875 -1.046875 
Q 31.9375 0.484375 25.09375 0.484375 
L 16.890625 0.484375 
Q 14.59375 0.484375 12.671875 -0.609375 
Q 10.75 -1.703125 9.578125 -3.6875 
Q 8.40625 -5.671875 8.40625 -7.8125 
z
M 22.21875 17.390625 
Q 30.71875 17.390625 30.71875 29.5 
Q 30.71875 34.71875 28.90625 38.109375 
Q 27.09375 41.5 22.21875 41.5 
Q 17.328125 41.5 15.515625 38.109375 
Q 13.71875 34.71875 13.71875 29.5 
Q 13.71875 26.171875 14.40625 23.484375 
Q 15.09375 20.796875 16.9375 19.09375 
Q 18.796875 17.390625 22.21875 17.390625 
z
" id="Cmr10-67"/>
      </defs>
      <g style="fill:#262626;" transform="translate(10.959375 196.05452)scale(0.12 -0.12)">
       <use xlink:href="#Cmr10-4a"/>
       <use x="51.318359" xlink:href="#Cmr10-6f"/>
       <use x="101.318359" xlink:href="#Cmr10-68"/>
       <use x="156.835938" xlink:href="#Cmr10-61"/>
       <use x="206.835938" xlink:href="#Cmr10-6e"/>
       <use x="262.353516" xlink:href="#Cmr10-6e"/>
       <use x="317.871094" xlink:href="#Cmr10-65"/>
       <use x="362.255859" xlink:href="#Cmr10-73"/>
       <use x="401.660156" xlink:href="#Cmr10-62"/>
       <use x="457.177734" xlink:href="#Cmr10-75"/>
       <use x="512.695312" xlink:href="#Cmr10-72"/>
       <use x="551.806641" xlink:href="#Cmr10-67"/>
      </g>
     </g>
    </g>
    <g id="ytick_7">
     <g id="line2d_12"/>
     <g id="text_12">
      <!-- Kampala -->
      <defs>
       <path d="M 3.078125 0 
L 3.078125 3.515625 
Q 13.375 3.515625 13.375 6.6875 
L 13.375 61.625 
Q 13.375 64.796875 3.078125 64.796875 
L 3.078125 68.3125 
L 33.015625 68.3125 
L 33.015625 64.796875 
Q 22.703125 64.796875 22.703125 61.625 
L 22.703125 29.203125 
L 53.609375 58.890625 
Q 54.890625 60.25 54.890625 61.625 
Q 54.890625 63.1875 53.546875 63.984375 
Q 52.203125 64.796875 50.484375 64.796875 
L 50.484375 68.3125 
L 72.21875 68.3125 
L 72.21875 64.796875 
Q 64.015625 64.796875 57.8125 58.890625 
L 40.09375 41.890625 
L 62.015625 9.421875 
Q 64.703125 5.46875 66.71875 4.484375 
Q 68.75 3.515625 73.578125 3.515625 
L 73.578125 0 
L 47.40625 0 
L 47.40625 3.515625 
Q 49.8125 3.515625 51.4375 4 
Q 53.078125 4.5 53.078125 6.296875 
Q 53.078125 7.515625 51.8125 9.421875 
L 33.890625 35.984375 
L 22.703125 25.203125 
L 22.703125 6.6875 
Q 22.703125 3.515625 33.015625 3.515625 
L 33.015625 0 
z
" id="Cmr10-4b"/>
       <path d="M 2.59375 -19.390625 
L 2.59375 -15.921875 
Q 6 -15.921875 8.203125 -15.328125 
Q 10.40625 -14.75 10.40625 -12.703125 
L 10.40625 35.5 
Q 10.40625 38.234375 8.453125 38.90625 
Q 6.5 39.59375 2.59375 39.59375 
L 2.59375 43.109375 
L 17.390625 44.1875 
L 17.390625 37.984375 
Q 20.125 41.015625 23.75 42.59375 
Q 27.390625 44.1875 31.5 44.1875 
Q 37.40625 44.1875 42.140625 40.984375 
Q 46.875 37.796875 49.53125 32.59375 
Q 52.203125 27.390625 52.203125 21.578125 
Q 52.203125 15.53125 49.25 10.296875 
Q 46.296875 5.078125 41.1875 1.96875 
Q 36.078125 -1.125 29.984375 -1.125 
Q 22.703125 -1.125 17.671875 4.78125 
L 17.671875 -12.703125 
Q 17.671875 -14.75 19.890625 -15.328125 
Q 22.125 -15.921875 25.484375 -15.921875 
L 25.484375 -19.390625 
z
M 17.671875 9.71875 
Q 19.4375 6.15625 22.5625 3.828125 
Q 25.6875 1.515625 29.390625 1.515625 
Q 32.859375 1.515625 35.515625 3.359375 
Q 38.1875 5.21875 39.984375 8.34375 
Q 41.796875 11.46875 42.640625 14.90625 
Q 43.5 18.359375 43.5 21.578125 
Q 43.5 25.59375 42.0625 30.25 
Q 40.625 34.90625 37.671875 38.109375 
Q 34.71875 41.3125 30.515625 41.3125 
Q 26.46875 41.3125 23.0625 39.234375 
Q 19.671875 37.15625 17.671875 33.59375 
z
" id="Cmr10-70"/>
       <path d="M 3.078125 0 
L 3.078125 3.515625 
Q 6.5 3.515625 8.6875 4.046875 
Q 10.890625 4.59375 10.890625 6.6875 
L 10.890625 59.1875 
Q 10.890625 61.859375 10.078125 63.0625 
Q 9.28125 64.265625 7.765625 64.53125 
Q 6.25 64.796875 3.078125 64.796875 
L 3.078125 68.3125 
L 17.921875 69.390625 
L 17.921875 6.6875 
Q 17.921875 4.59375 20.109375 4.046875 
Q 22.3125 3.515625 25.6875 3.515625 
L 25.6875 0 
z
" id="Cmr10-6c"/>
      </defs>
      <g style="fill:#262626;" transform="translate(35.8725 170.147355)scale(0.12 -0.12)">
       <use xlink:href="#Cmr10-4b"/>
       <use x="77.685547" xlink:href="#Cmr10-61"/>
       <use x="127.685547" xlink:href="#Cmr10-6d"/>
       <use x="210.986328" xlink:href="#Cmr10-70"/>
       <use x="266.503906" xlink:href="#Cmr10-61"/>
       <use x="316.503906" xlink:href="#Cmr10-6c"/>
       <use x="344.189453" xlink:href="#Cmr10-61"/>
      </g>
     </g>
    </g>
    <g id="ytick_8">
     <g id="line2d_13"/>
     <g id="text_13">
      <!-- Katsina -->
      <g style="fill:#262626;" transform="translate(42.481875 144.24019)scale(0.12 -0.12)">
       <use xlink:href="#Cmr10-4b"/>
       <use x="77.685547" xlink:href="#Cmr10-61"/>
       <use x="127.685547" xlink:href="#Cmr10-74"/>
       <use x="166.503906" xlink:href="#Cmr10-73"/>
       <use x="205.908203" xlink:href="#Cmr10-69"/>
       <use x="233.59375" xlink:href="#Cmr10-6e"/>
       <use x="289.111328" xlink:href="#Cmr10-61"/>
      </g>
     </g>
    </g>
    <g id="ytick_9">
     <g id="line2d_14"/>
     <g id="text_14">
      <!-- Nairobi -->
      <defs>
       <path d="M 3.078125 0 
L 3.078125 3.515625 
Q 13.375 3.515625 13.375 9.421875 
L 13.375 64.203125 
Q 10.109375 64.796875 3.078125 64.796875 
L 3.078125 68.3125 
L 22.21875 68.3125 
Q 22.703125 68.3125 22.90625 67.921875 
L 58.296875 15.828125 
L 58.296875 58.890625 
Q 58.296875 64.796875 48 64.796875 
L 48 68.3125 
L 71.78125 68.3125 
L 71.78125 64.796875 
Q 61.53125 64.796875 61.53125 58.890625 
L 61.53125 0.875 
Q 61.53125 0.59375 61.140625 0.296875 
Q 60.75 0 60.5 0 
L 59.28125 0 
Q 58.796875 0 58.59375 0.390625 
L 16.609375 62.203125 
L 16.609375 9.421875 
Q 16.609375 3.515625 26.90625 3.515625 
L 26.90625 0 
z
" id="Cmr10-4e"/>
      </defs>
      <g style="fill:#262626;" transform="translate(44.175 118.333025)scale(0.12 -0.12)">
       <use xlink:href="#Cmr10-4e"/>
       <use x="75" xlink:href="#Cmr10-61"/>
       <use x="125" xlink:href="#Cmr10-69"/>
       <use x="152.685547" xlink:href="#Cmr10-72"/>
       <use x="191.796875" xlink:href="#Cmr10-6f"/>
       <use x="241.796875" xlink:href="#Cmr10-62"/>
       <use x="297.314453" xlink:href="#Cmr10-69"/>
      </g>
     </g>
    </g>
    <g id="ytick_10">
     <g id="line2d_15"/>
     <g id="text_15">
      <!-- Ouagadougou -->
      <defs>
       <path d="M 38.921875 -2.203125 
Q 29.390625 -2.203125 21.796875 2.84375 
Q 14.203125 7.90625 9.90625 16.28125 
Q 5.609375 24.65625 5.609375 33.890625 
Q 5.609375 40.71875 8.078125 47.40625 
Q 10.546875 54.109375 14.96875 59.28125 
Q 19.390625 64.453125 25.578125 67.484375 
Q 31.78125 70.515625 38.921875 70.515625 
Q 46 70.515625 52.21875 67.453125 
Q 58.453125 64.40625 62.890625 59.171875 
Q 67.328125 53.953125 69.71875 47.453125 
Q 72.125 40.96875 72.125 33.890625 
Q 72.125 24.65625 67.828125 16.28125 
Q 63.53125 7.90625 55.90625 2.84375 
Q 48.296875 -2.203125 38.921875 -2.203125 
z
M 22.3125 10.796875 
Q 25.25 6.203125 29.546875 3.484375 
Q 33.84375 0.78125 38.921875 0.78125 
Q 42.1875 0.78125 45.328125 2.09375 
Q 48.484375 3.421875 51.046875 5.71875 
Q 53.609375 8.015625 55.421875 10.796875 
Q 61.375 19.78125 61.375 35.5 
Q 61.375 49.90625 55.421875 58.296875 
Q 52.484375 62.5 48.109375 65.03125 
Q 43.75 67.578125 38.921875 67.578125 
Q 34.03125 67.578125 29.640625 65.03125 
Q 25.25 62.5 22.3125 58.296875 
Q 19.96875 55.03125 18.671875 51.34375 
Q 17.390625 47.65625 16.84375 43.703125 
Q 16.3125 39.75 16.3125 35.5 
Q 16.3125 30.953125 16.8125 26.625 
Q 17.328125 22.3125 18.71875 18.15625 
Q 20.125 14.015625 22.3125 10.796875 
z
" id="Cmr10-4f"/>
       <path d="M 24.421875 -1.125 
Q 18.5 -1.125 13.609375 2.078125 
Q 8.734375 5.28125 6.03125 10.5 
Q 3.328125 15.71875 3.328125 21.578125 
Q 3.328125 27.640625 6.28125 32.828125 
Q 9.234375 38.03125 14.3125 41.109375 
Q 19.390625 44.1875 25.484375 44.1875 
Q 29.15625 44.1875 32.421875 42.640625 
Q 35.6875 41.109375 38.09375 38.375 
L 38.09375 59.1875 
Q 38.09375 61.859375 37.28125 63.0625 
Q 36.46875 64.265625 34.984375 64.53125 
Q 33.5 64.796875 30.328125 64.796875 
L 30.328125 68.3125 
L 45.125 69.390625 
L 45.125 9.078125 
Q 45.125 6.453125 45.921875 5.25 
Q 46.734375 4.046875 48.21875 3.78125 
Q 49.703125 3.515625 52.875 3.515625 
L 52.875 0 
L 37.796875 -1.125 
L 37.796875 5.171875 
Q 35.203125 2.203125 31.640625 0.53125 
Q 28.078125 -1.125 24.421875 -1.125 
z
M 14.203125 8.6875 
Q 15.921875 5.421875 18.765625 3.46875 
Q 21.625 1.515625 25 1.515625 
Q 29.15625 1.515625 32.609375 3.90625 
Q 36.078125 6.296875 37.796875 10.109375 
L 37.796875 34.078125 
Q 36.625 36.28125 34.84375 38.015625 
Q 33.0625 39.75 30.828125 40.671875 
Q 28.609375 41.609375 26.125 41.609375 
Q 20.90625 41.609375 17.71875 38.640625 
Q 14.546875 35.6875 13.28125 31.09375 
Q 12.015625 26.515625 12.015625 21.484375 
Q 12.015625 17.484375 12.421875 14.5 
Q 12.84375 11.53125 14.203125 8.6875 
z
" id="Cmr10-64"/>
      </defs>
      <g style="fill:#262626;" transform="translate(11.205 92.49336)scale(0.12 -0.12)">
       <use xlink:href="#Cmr10-4f"/>
       <use x="77.685547" xlink:href="#Cmr10-75"/>
       <use x="133.203125" xlink:href="#Cmr10-61"/>
       <use x="183.203125" xlink:href="#Cmr10-67"/>
       <use x="233.203125" xlink:href="#Cmr10-61"/>
       <use x="283.203125" xlink:href="#Cmr10-64"/>
       <use x="338.720703" xlink:href="#Cmr10-6f"/>
       <use x="388.720703" xlink:href="#Cmr10-75"/>
       <use x="444.238281" xlink:href="#Cmr10-67"/>
       <use x="494.238281" xlink:href="#Cmr10-6f"/>
       <use x="544.238281" xlink:href="#Cmr10-75"/>
      </g>
     </g>
    </g>
    <g id="ytick_11">
     <g id="line2d_16"/>
     <g id="text_16">
      <!-- Saint-Louis -->
      <defs>
       <path d="M 5.609375 -1.421875 
L 5.609375 21.921875 
Q 5.609375 22.703125 6.5 22.703125 
L 7.71875 22.703125 
Q 8.015625 22.703125 8.25 22.453125 
Q 8.5 22.21875 8.5 21.921875 
Q 8.5 12.109375 14.578125 6.703125 
Q 20.65625 1.3125 30.515625 1.3125 
Q 33.984375 1.3125 36.90625 3.3125 
Q 39.84375 5.328125 41.46875 8.5625 
Q 43.109375 11.8125 43.109375 15.28125 
Q 43.109375 18.3125 41.890625 21.171875 
Q 40.671875 24.03125 38.375 26.125 
Q 36.078125 28.21875 33.203125 28.90625 
L 20.21875 32.078125 
Q 13.765625 33.796875 9.6875 39.09375 
Q 5.609375 44.390625 5.609375 50.984375 
Q 5.609375 56.15625 8.25 60.6875 
Q 10.890625 65.234375 15.359375 67.875 
Q 19.828125 70.515625 25 70.515625 
Q 35.015625 70.515625 40.921875 63.71875 
L 45.015625 70.21875 
Q 45.3125 70.515625 45.703125 70.515625 
L 46.390625 70.515625 
Q 46.6875 70.515625 46.953125 70.28125 
Q 47.21875 70.0625 47.21875 69.671875 
L 47.21875 46.484375 
Q 47.21875 45.609375 46.390625 45.609375 
L 45.21875 45.609375 
Q 44.28125 45.609375 44.28125 46.484375 
Q 44.28125 49.03125 43.421875 52.046875 
Q 42.578125 55.078125 41.0625 57.859375 
Q 39.546875 60.640625 37.796875 62.40625 
Q 32.953125 67.28125 25 67.28125 
Q 21.578125 67.28125 18.703125 65.546875 
Q 15.828125 63.8125 14.109375 60.828125 
Q 12.40625 57.859375 12.40625 54.59375 
Q 12.40625 50.296875 15.0625 46.796875 
Q 17.71875 43.3125 22.015625 42.1875 
L 35.015625 39.015625 
Q 38.234375 38.234375 41.09375 36.203125 
Q 43.953125 34.1875 45.84375 31.5 
Q 47.75 28.8125 48.828125 25.515625 
Q 49.90625 22.21875 49.90625 18.703125 
Q 49.90625 13.28125 47.40625 8.46875 
Q 44.921875 3.65625 40.40625 0.71875 
Q 35.890625 -2.203125 30.515625 -2.203125 
Q 27.203125 -2.203125 23.734375 -1.46875 
Q 20.265625 -0.734375 17.328125 0.78125 
Q 14.40625 2.296875 12.015625 4.6875 
L 7.8125 -1.90625 
Q 7.515625 -2.203125 7.078125 -2.203125 
L 6.5 -2.203125 
Q 5.609375 -2.203125 5.609375 -1.421875 
z
" id="Cmr10-53"/>
       <path d="M 1.125 18.5 
L 1.125 24.703125 
L 27.59375 24.703125 
L 27.59375 18.5 
z
" id="Cmr10-2d"/>
       <path d="M 3.078125 0 
L 3.078125 3.515625 
Q 13.375 3.515625 13.375 6.6875 
L 13.375 61.625 
Q 13.375 64.796875 3.078125 64.796875 
L 3.078125 68.3125 
L 35.5 68.3125 
L 35.5 64.796875 
Q 22.703125 64.796875 22.703125 61.625 
L 22.703125 6.6875 
Q 22.703125 4.546875 23.921875 4.03125 
Q 25.140625 3.515625 27.78125 3.515625 
L 35.5 3.515625 
Q 42.96875 3.515625 47.015625 6.25 
Q 51.078125 8.984375 52.75 13.6875 
Q 54.4375 18.40625 55.328125 26.21875 
L 58.203125 26.21875 
L 55.421875 0 
z
" id="Cmr10-4c"/>
      </defs>
      <g style="fill:#262626;" transform="translate(23.6625 66.518696)scale(0.12 -0.12)">
       <use xlink:href="#Cmr10-53"/>
       <use x="55.517578" xlink:href="#Cmr10-61"/>
       <use x="105.517578" xlink:href="#Cmr10-69"/>
       <use x="133.203125" xlink:href="#Cmr10-6e"/>
       <use x="188.720703" xlink:href="#Cmr10-74"/>
       <use x="227.539062" xlink:href="#Cmr10-2d"/>
       <use x="260.839844" xlink:href="#Cmr10-4c"/>
       <use x="323.339844" xlink:href="#Cmr10-6f"/>
       <use x="373.339844" xlink:href="#Cmr10-75"/>
       <use x="428.857422" xlink:href="#Cmr10-69"/>
       <use x="456.542969" xlink:href="#Cmr10-73"/>
      </g>
     </g>
    </g>
    <g id="ytick_12">
     <g id="line2d_17"/>
     <g id="text_17">
      <!-- Windhoek -->
      <defs>
       <path d="M 31.109375 -1.125 
L 10.6875 61.625 
Q 9.90625 63.71875 7.65625 64.25 
Q 5.421875 64.796875 1.8125 64.796875 
L 1.8125 68.3125 
L 28.609375 68.3125 
L 28.609375 64.796875 
Q 20.21875 64.796875 20.21875 62.109375 
L 20.21875 61.625 
L 36.1875 12.40625 
L 49.8125 54.5 
L 47.515625 61.625 
Q 46.734375 63.71875 44.484375 64.25 
Q 42.234375 64.796875 38.625 64.796875 
L 38.625 68.3125 
L 65.375 68.3125 
L 65.375 64.796875 
Q 56.890625 64.796875 56.890625 62.109375 
Q 56.890625 61.96875 56.984375 61.671875 
Q 57.078125 61.375 57.078125 61.28125 
L 73 12.40625 
L 87.984375 58.890625 
Q 88.09375 59.1875 88.09375 59.8125 
Q 88.09375 62.453125 85.296875 63.625 
Q 82.515625 64.796875 79.5 64.796875 
L 79.5 68.3125 
L 100.875 68.3125 
L 100.875 64.796875 
Q 92.96875 64.796875 91.109375 58.890625 
L 71.578125 -1.125 
Q 71.234375 -2.203125 70.125 -2.203125 
L 69.390625 -2.203125 
Q 68.265625 -2.203125 67.921875 -1.125 
L 51.421875 49.8125 
L 34.8125 -1.125 
Q 34.46875 -2.203125 33.296875 -2.203125 
L 32.625 -2.203125 
Q 31.453125 -2.203125 31.109375 -1.125 
z
" id="Cmr10-57"/>
      </defs>
      <g style="fill:#262626;" transform="translate(29.895 40.611531)scale(0.12 -0.12)">
       <use xlink:href="#Cmr10-57"/>
       <use x="102.685547" xlink:href="#Cmr10-69"/>
       <use x="130.371094" xlink:href="#Cmr10-6e"/>
       <use x="185.888672" xlink:href="#Cmr10-64"/>
       <use x="241.40625" xlink:href="#Cmr10-68"/>
       <use x="296.923828" xlink:href="#Cmr10-6f"/>
       <use x="346.923828" xlink:href="#Cmr10-65"/>
       <use x="391.308594" xlink:href="#Cmr10-6b"/>
      </g>
     </g>
    </g>
   </g>
   <g id="patch_3">
    <path clip-path="url(#p0afe2847e6)" d="M 88.775 331.789773 
L 175.196888 331.789773 
L 175.196888 311.064041 
L 88.775 311.064041 
z
" style="fill:#5f9ea0;"/>
   </g>
   <g id="patch_4">
    <path clip-path="url(#p0afe2847e6)" d="M 88.775 305.882608 
L 175.403103 305.882608 
L 175.403103 285.156876 
L 88.775 285.156876 
z
" style="fill:#5f9ea0;"/>
   </g>
   <g id="patch_5">
    <path clip-path="url(#p0afe2847e6)" d="M 88.775 279.975443 
L 124.939046 279.975443 
L 124.939046 259.249711 
L 88.775 259.249711 
z
" style="fill:#5f9ea0;"/>
   </g>
   <g id="patch_6">
    <path clip-path="url(#p0afe2847e6)" d="M 88.775 254.068278 
L 140.434992 254.068278 
L 140.434992 233.342546 
L 88.775 233.342546 
z
" style="fill:#5f9ea0;"/>
   </g>
   <g id="patch_7">
    <path clip-path="url(#p0afe2847e6)" d="M 88.775 228.161113 
L 167.514985 228.161113 
L 167.514985 207.435381 
L 88.775 207.435381 
z
" style="fill:#5f9ea0;"/>
   </g>
   <g id="patch_8">
    <path clip-path="url(#p0afe2847e6)" d="M 88.775 202.253948 
L 179.494963 202.253948 
L 179.494963 181.528216 
L 88.775 181.528216 
z
" style="fill:#5f9ea0;"/>
   </g>
   <g id="patch_9">
    <path clip-path="url(#p0afe2847e6)" d="M 88.775 176.346784 
L 157.138902 176.346784 
L 157.138902 155.621052 
L 88.775 155.621052 
z
" style="fill:#5f9ea0;"/>
   </g>
   <g id="patch_10">
    <path clip-path="url(#p0afe2847e6)" d="M 88.775 150.439619 
L 207.813245 150.439619 
L 207.813245 129.713887 
L 88.775 129.713887 
z
" style="fill:#5f9ea0;"/>
   </g>
   <g id="patch_11">
    <path clip-path="url(#p0afe2847e6)" d="M 88.775 124.532454 
L 155.426159 124.532454 
L 155.426159 103.806722 
L 88.775 103.806722 
z
" style="fill:#5f9ea0;"/>
   </g>
   <g id="patch_12">
    <path clip-path="url(#p0afe2847e6)" d="M 88.775 98.625289 
L 148.749854 98.625289 
L 148.749854 77.899557 
L 88.775 77.899557 
z
" style="fill:#5f9ea0;"/>
   </g>
   <g id="patch_13">
    <path clip-path="url(#p0afe2847e6)" d="M 88.775 72.718124 
L 178.772662 72.718124 
L 178.772662 51.992392 
L 88.775 51.992392 
z
" style="fill:#5f9ea0;"/>
   </g>
   <g id="patch_14">
    <path clip-path="url(#p0afe2847e6)" d="M 88.775 46.810959 
L 151.191042 46.810959 
L 151.191042 26.085227 
L 88.775 26.085227 
z
" style="fill:#5f9ea0;"/>
   </g>
   <g id="patch_15">
    <path clip-path="url(#p0afe2847e6)" d="M 175.196888 331.789773 
L 229.758368 331.789773 
L 229.758368 311.064041 
L 175.196888 311.064041 
z
" style="fill:#b0e0e6;"/>
   </g>
   <g id="patch_16">
    <path clip-path="url(#p0afe2847e6)" d="M 175.403103 305.882608 
L 225.367013 305.882608 
L 225.367013 285.156876 
L 175.403103 285.156876 
z
" style="fill:#b0e0e6;"/>
   </g>
   <g id="patch_17">
    <path clip-path="url(#p0afe2847e6)" d="M 124.939046 279.975443 
L 150.225379 279.975443 
L 150.225379 259.249711 
L 124.939046 259.249711 
z
" style="fill:#b0e0e6;"/>
   </g>
   <g id="patch_18">
    <path clip-path="url(#p0afe2847e6)" d="M 140.434992 254.068278 
L 193.156454 254.068278 
L 193.156454 233.342546 
L 140.434992 233.342546 
z
" style="fill:#b0e0e6;"/>
   </g>
   <g id="patch_19">
    <path clip-path="url(#p0afe2847e6)" d="M 167.514985 228.161113 
L 212.760824 228.161113 
L 212.760824 207.435381 
L 167.514985 207.435381 
z
" style="fill:#b0e0e6;"/>
   </g>
   <g id="patch_20">
    <path clip-path="url(#p0afe2847e6)" d="M 179.494963 202.253948 
L 271.757085 202.253948 
L 271.757085 181.528216 
L 179.494963 181.528216 
z
" style="fill:#b0e0e6;"/>
   </g>
   <g id="patch_21">
    <path clip-path="url(#p0afe2847e6)" d="M 157.138902 176.346784 
L 180.147058 176.346784 
L 180.147058 155.621052 
L 157.138902 155.621052 
z
" style="fill:#b0e0e6;"/>
   </g>
   <g id="patch_22">
    <path clip-path="url(#p0afe2847e6)" d="M 207.813245 150.439619 
L 259.948103 150.439619 
L 259.948103 129.713887 
L 207.813245 129.713887 
z
" style="fill:#b0e0e6;"/>
   </g>
   <g id="patch_23">
    <path clip-path="url(#p0afe2847e6)" d="M 155.426159 124.532454 
L 243.003283 124.532454 
L 243.003283 103.806722 
L 155.426159 103.806722 
z
" style="fill:#b0e0e6;"/>
   </g>
   <g id="patch_24">
    <path clip-path="url(#p0afe2847e6)" d="M 148.749854 98.625289 
L 195.330849 98.625289 
L 195.330849 77.899557 
L 148.749854 77.899557 
z
" style="fill:#b0e0e6;"/>
   </g>
   <g id="patch_25">
    <path clip-path="url(#p0afe2847e6)" d="M 178.772662 72.718124 
L 208.88585 72.718124 
L 208.88585 51.992392 
L 178.772662 51.992392 
z
" style="fill:#b0e0e6;"/>
   </g>
   <g id="patch_26">
    <path clip-path="url(#p0afe2847e6)" d="M 151.191042 46.810959 
L 197.504516 46.810959 
L 197.504516 26.085227 
L 151.191042 26.085227 
z
" style="fill:#b0e0e6;"/>
   </g>
   <g id="patch_27">
    <path clip-path="url(#p0afe2847e6)" d="M 229.758368 331.789773 
L 299.901301 331.789773 
L 299.901301 311.064041 
L 229.758368 311.064041 
z
" style="fill:#f08080;"/>
   </g>
   <g id="patch_28">
    <path clip-path="url(#p0afe2847e6)" d="M 225.367013 305.882608 
L 324.777554 305.882608 
L 324.777554 285.156876 
L 225.367013 285.156876 
z
" style="fill:#f08080;"/>
   </g>
   <g id="patch_29">
    <path clip-path="url(#p0afe2847e6)" d="M 150.225379 279.975443 
L 266.6278 279.975443 
L 266.6278 259.249711 
L 150.225379 259.249711 
z
" style="fill:#f08080;"/>
   </g>
   <g id="patch_30">
    <path clip-path="url(#p0afe2847e6)" d="M 193.156454 254.068278 
L 316.871589 254.068278 
L 316.871589 233.342546 
L 193.156454 233.342546 
z
" style="fill:#f08080;"/>
   </g>
   <g id="patch_31">
    <path clip-path="url(#p0afe2847e6)" d="M 212.760824 228.161113 
L 302.353768 228.161113 
L 302.353768 207.435381 
L 212.760824 207.435381 
z
" style="fill:#f08080;"/>
   </g>
   <g id="patch_32">
    <path clip-path="url(#p0afe2847e6)" d="M 271.757085 202.253948 
L 322.011735 202.253948 
L 322.011735 181.528216 
L 271.757085 181.528216 
z
" style="fill:#f08080;"/>
   </g>
   <g id="patch_33">
    <path clip-path="url(#p0afe2847e6)" d="M 180.147058 176.346784 
L 280.017765 176.346784 
L 280.017765 155.621052 
L 180.147058 155.621052 
z
" style="fill:#f08080;"/>
   </g>
   <g id="patch_34">
    <path clip-path="url(#p0afe2847e6)" d="M 259.948103 150.439619 
L 329.849433 150.439619 
L 329.849433 129.713887 
L 259.948103 129.713887 
z
" style="fill:#f08080;"/>
   </g>
   <g id="patch_35">
    <path clip-path="url(#p0afe2847e6)" d="M 243.003283 124.532454 
L 318.335743 124.532454 
L 318.335743 103.806722 
L 243.003283 103.806722 
z
" style="fill:#f08080;"/>
   </g>
   <g id="patch_36">
    <path clip-path="url(#p0afe2847e6)" d="M 195.330849 98.625289 
L 270.129849 98.625289 
L 270.129849 77.899557 
L 195.330849 77.899557 
z
" style="fill:#f08080;"/>
   </g>
   <g id="patch_37">
    <path clip-path="url(#p0afe2847e6)" d="M 208.88585 72.718124 
L 316.253886 72.718124 
L 316.253886 51.992392 
L 208.88585 51.992392 
z
" style="fill:#f08080;"/>
   </g>
   <g id="patch_38">
    <path clip-path="url(#p0afe2847e6)" d="M 197.504516 46.810959 
L 271.392694 46.810959 
L 271.392694 26.085227 
L 197.504516 26.085227 
z
" style="fill:#f08080;"/>
   </g>
   <g id="patch_39">
    <path clip-path="url(#p0afe2847e6)" d="M 299.901301 331.789773 
L 335.2 331.789773 
L 335.2 311.064041 
L 299.901301 311.064041 
z
" style="fill:#cd5c5c;"/>
   </g>
   <g id="patch_40">
    <path clip-path="url(#p0afe2847e6)" d="M 324.777554 305.882608 
L 335.2 305.882608 
L 335.2 285.156876 
L 324.777554 285.156876 
z
" style="fill:#cd5c5c;"/>
   </g>
   <g id="patch_41">
    <path clip-path="url(#p0afe2847e6)" d="M 266.6278 279.975443 
L 335.2 279.975443 
L 335.2 259.249711 
L 266.6278 259.249711 
z
" style="fill:#cd5c5c;"/>
   </g>
   <g id="patch_42">
    <path clip-path="url(#p0afe2847e6)" d="M 316.871589 254.068278 
L 335.2 254.068278 
L 335.2 233.342546 
L 316.871589 233.342546 
z
" style="fill:#cd5c5c;"/>
   </g>
   <g id="patch_43">
    <path clip-path="url(#p0afe2847e6)" d="M 302.353768 228.161113 
L 335.2 228.161113 
L 335.2 207.435381 
L 302.353768 207.435381 
z
" style="fill:#cd5c5c;"/>
   </g>
   <g id="patch_44">
    <path clip-path="url(#p0afe2847e6)" d="M 322.011735 202.253948 
L 335.2 202.253948 
L 335.2 181.528216 
L 322.011735 181.528216 
z
" style="fill:#cd5c5c;"/>
   </g>
   <g id="patch_45">
    <path clip-path="url(#p0afe2847e6)" d="M 280.017765 176.346784 
L 335.2 176.346784 
L 335.2 155.621052 
L 280.017765 155.621052 
z
" style="fill:#cd5c5c;"/>
   </g>
   <g id="patch_46">
    <path clip-path="url(#p0afe2847e6)" d="M 329.849433 150.439619 
L 335.2 150.439619 
L 335.2 129.713887 
L 329.849433 129.713887 
z
" style="fill:#cd5c5c;"/>
   </g>
   <g id="patch_47">
    <path clip-path="url(#p0afe2847e6)" d="M 318.335743 124.532454 
L 335.2 124.532454 
L 335.2 103.806722 
L 318.335743 103.806722 
z
" style="fill:#cd5c5c;"/>
   </g>
   <g id="patch_48">
    <path clip-path="url(#p0afe2847e6)" d="M 270.129849 98.625289 
L 335.2 98.625289 
L 335.2 77.899557 
L 270.129849 77.899557 
z
" style="fill:#cd5c5c;"/>
   </g>
   <g id="patch_49">
    <path clip-path="url(#p0afe2847e6)" d="M 316.253886 72.718124 
L 335.2 72.718124 
L 335.2 51.992392 
L 316.253886 51.992392 
z
" style="fill:#cd5c5c;"/>
   </g>
   <g id="patch_50">
    <path clip-path="url(#p0afe2847e6)" d="M 271.392694 46.810959 
L 335.2 46.810959 
L 335.2 26.085227 
L 271.392694 26.085227 
z
" style="fill:#cd5c5c;"/>
   </g>
   <g id="line2d_18">
    <path clip-path="url(#p0afe2847e6)" d="M 211.9875 330.26125 
L 211.9875 27.61375 
" style="fill:none;stroke:#ffffff;stroke-dasharray:3.7,1.6;stroke-dashoffset:0;"/>
   </g>
  </g>
  <g id="legend_1">
   <g id="patch_51">
    <path d="M 56.829375 19.2 
L 68.829375 19.2 
L 68.829375 10.8 
L 56.829375 10.8 
z
" style="fill:#5f9ea0;"/>
   </g>
   <g id="text_18">
    <!-- VV -->
    <defs>
     <path d="M 35.203125 -1.125 
L 11.625 61.625 
Q 10.75 63.71875 8.25 64.25 
Q 5.765625 64.796875 1.90625 64.796875 
L 1.90625 68.3125 
L 29.390625 68.3125 
L 29.390625 64.796875 
Q 21.09375 64.796875 21.09375 62.203125 
Q 21.140625 62.0625 21.15625 61.9375 
Q 21.1875 61.8125 21.1875 61.625 
L 40.375 10.59375 
L 58.5 58.890625 
Q 58.6875 59.28125 58.6875 60.109375 
Q 58.6875 62.546875 56.4375 63.671875 
Q 54.203125 64.796875 51.421875 64.796875 
L 51.421875 68.3125 
L 73 68.3125 
L 73 64.796875 
Q 69.234375 64.796875 66.375 63.40625 
Q 63.53125 62.015625 62.3125 58.890625 
L 39.703125 -1.125 
Q 39.40625 -2.203125 38.09375 -2.203125 
L 36.8125 -2.203125 
Q 35.5 -2.203125 35.203125 -1.125 
z
" id="Cmr10-56"/>
    </defs>
    <g style="fill:#262626;" transform="translate(71.829375 19.2)scale(0.12 -0.12)">
     <use xlink:href="#Cmr10-56"/>
     <use x="75" xlink:href="#Cmr10-56"/>
    </g>
   </g>
   <g id="patch_52">
    <path d="M 113.829375 19.2 
L 125.829375 19.2 
L 125.829375 10.8 
L 113.829375 10.8 
z
" style="fill:#b0e0e6;"/>
   </g>
   <g id="text_19">
    <!-- VH -->
    <defs>
     <path d="M 3.078125 0 
L 3.078125 3.515625 
Q 13.375 3.515625 13.375 6.6875 
L 13.375 61.625 
Q 13.375 64.796875 3.078125 64.796875 
L 3.078125 68.3125 
L 33.015625 68.3125 
L 33.015625 64.796875 
Q 22.703125 64.796875 22.703125 61.625 
L 22.703125 37.3125 
L 52.203125 37.3125 
L 52.203125 61.625 
Q 52.203125 64.796875 41.890625 64.796875 
L 41.890625 68.3125 
L 71.78125 68.3125 
L 71.78125 64.796875 
Q 61.53125 64.796875 61.53125 61.625 
L 61.53125 6.6875 
Q 61.53125 3.515625 71.78125 3.515625 
L 71.78125 0 
L 41.890625 0 
L 41.890625 3.515625 
Q 52.203125 3.515625 52.203125 6.6875 
L 52.203125 33.796875 
L 22.703125 33.796875 
L 22.703125 6.6875 
Q 22.703125 3.515625 33.015625 3.515625 
L 33.015625 0 
z
" id="Cmr10-48"/>
    </defs>
    <g style="fill:#262626;" transform="translate(128.829375 19.2)scale(0.12 -0.12)">
     <use xlink:href="#Cmr10-56"/>
     <use x="75" xlink:href="#Cmr10-48"/>
    </g>
   </g>
   <g id="patch_53">
    <path d="M 170.829375 19.2 
L 182.829375 19.2 
L 182.829375 10.8 
L 170.829375 10.8 
z
" style="fill:#f08080;"/>
   </g>
   <g id="text_20">
    <!-- Multispectral -->
    <defs>
     <path d="M 3.515625 0 
L 3.515625 3.515625 
Q 13.8125 3.515625 13.8125 9.421875 
L 13.8125 61.625 
Q 13.8125 64.796875 3.515625 64.796875 
L 3.515625 68.3125 
L 22.40625 68.3125 
Q 23.640625 68.3125 24.03125 67.1875 
L 45.796875 10.59375 
L 67.578125 67.1875 
Q 67.96875 68.3125 69.1875 68.3125 
L 88.09375 68.3125 
L 88.09375 64.796875 
Q 77.78125 64.796875 77.78125 61.625 
L 77.78125 6.6875 
Q 77.78125 3.515625 88.09375 3.515625 
L 88.09375 0 
L 58.984375 0 
L 58.984375 3.515625 
Q 69.28125 3.515625 69.28125 6.6875 
L 69.28125 64.890625 
L 44.671875 1.125 
Q 44.234375 0 43.015625 0 
Q 41.75 0 41.3125 1.125 
L 17 64.109375 
L 17 9.421875 
Q 17 3.515625 27.296875 3.515625 
L 27.296875 0 
z
" id="Cmr10-4d"/>
     <path d="M 24.90625 -1.125 
Q 18.84375 -1.125 13.90625 2.015625 
Q 8.984375 5.171875 6.15625 10.421875 
Q 3.328125 15.671875 3.328125 21.578125 
Q 3.328125 27.484375 6.125 32.90625 
Q 8.9375 38.328125 13.890625 41.578125 
Q 18.84375 44.828125 24.90625 44.828125 
Q 30.765625 44.828125 35.5625 42.53125 
Q 40.375 40.234375 40.375 35.015625 
Q 40.375 33.0625 38.984375 31.609375 
Q 37.59375 30.171875 35.59375 30.171875 
Q 33.59375 30.171875 32.203125 31.609375 
Q 30.8125 33.0625 30.8125 35.015625 
Q 30.8125 36.765625 31.9375 38.0625 
Q 33.0625 39.359375 34.71875 39.703125 
Q 31.25 41.890625 25 41.890625 
Q 20.21875 41.890625 17.28125 38.71875 
Q 14.359375 35.546875 13.1875 30.859375 
Q 12.015625 26.171875 12.015625 21.578125 
Q 12.015625 16.75 13.453125 12.234375 
Q 14.890625 7.71875 18.09375 4.765625 
Q 21.296875 1.8125 26.125 1.8125 
Q 30.859375 1.8125 34.171875 4.71875 
Q 37.5 7.625 38.71875 12.3125 
Q 38.71875 12.890625 39.5 12.890625 
L 40.71875 12.890625 
Q 41.015625 12.890625 41.25 12.625 
Q 41.5 12.359375 41.5 12.015625 
L 41.5 11.71875 
Q 39.984375 5.8125 35.484375 2.34375 
Q 31 -1.125 24.90625 -1.125 
z
" id="Cmr10-63"/>
    </defs>
    <g style="fill:#262626;" transform="translate(185.829375 19.2)scale(0.12 -0.12)">
     <use xlink:href="#Cmr10-4d"/>
     <use x="91.601562" xlink:href="#Cmr10-75"/>
     <use x="147.119141" xlink:href="#Cmr10-6c"/>
     <use x="174.804688" xlink:href="#Cmr10-74"/>
     <use x="213.623047" xlink:href="#Cmr10-69"/>
     <use x="241.308594" xlink:href="#Cmr10-73"/>
     <use x="280.712891" xlink:href="#Cmr10-70"/>
     <use x="336.230469" xlink:href="#Cmr10-65"/>
     <use x="380.615234" xlink:href="#Cmr10-63"/>
     <use x="425" xlink:href="#Cmr10-74"/>
     <use x="463.818359" xlink:href="#Cmr10-72"/>
     <use x="502.929688" xlink:href="#Cmr10-61"/>
     <use x="552.929688" xlink:href="#Cmr10-6c"/>
    </g>
   </g>
   <g id="patch_54">
    <path d="M 279.504375 19.2 
L 291.504375 19.2 
L 291.504375 10.8 
L 279.504375 10.8 
z
" style="fill:#cd5c5c;"/>
   </g>
   <g id="text_21">
    <!-- Thermal -->
    <defs>
     <path d="M 16.890625 0 
L 16.890625 3.515625 
Q 21.921875 3.515625 26.65625 4.078125 
Q 31.390625 4.640625 31.390625 6.6875 
L 31.390625 61.625 
Q 31.390625 63.765625 30.1875 64.28125 
Q 29 64.796875 26.3125 64.796875 
L 22.125 64.796875 
Q 13.875 64.796875 10.40625 61.1875 
Q 8.59375 59.375 7.8125 55.390625 
Q 7.03125 51.421875 6.5 45.40625 
L 3.609375 45.40625 
L 5.515625 68.3125 
L 66.609375 68.3125 
L 68.5 45.40625 
L 65.578125 45.40625 
Q 64.984375 51.859375 64.28125 55.640625 
Q 63.578125 59.421875 61.71875 61.1875 
Q 58.203125 64.796875 50 64.796875 
L 45.796875 64.796875 
Q 44 64.796875 43 64.640625 
Q 42 64.5 41.359375 63.796875 
Q 40.71875 63.09375 40.71875 61.625 
L 40.71875 6.6875 
Q 40.71875 4.640625 45.453125 4.078125 
Q 50.203125 3.515625 55.171875 3.515625 
L 55.171875 0 
z
" id="Cmr10-54"/>
    </defs>
    <g style="fill:#262626;" transform="translate(294.504375 19.2)scale(0.12 -0.12)">
     <use xlink:href="#Cmr10-54"/>
     <use x="72.216797" xlink:href="#Cmr10-68"/>
     <use x="127.734375" xlink:href="#Cmr10-65"/>
     <use x="172.119141" xlink:href="#Cmr10-72"/>
     <use x="211.230469" xlink:href="#Cmr10-6d"/>
     <use x="294.53125" xlink:href="#Cmr10-61"/>
     <use x="344.53125" xlink:href="#Cmr10-6c"/>
    </g>
   </g>
  </g>
 </g>
 <defs>
  <clipPath id="p0afe2847e6">
   <rect height="336.275" width="246.425" x="88.775" y="10.8"/>
  </clipPath>
 </defs>
</svg>
